<svg width="35" height="35" viewBox="0 0 35 35" fill="none" xmlns="http://www.w3.org/2000/svg">
<rect x="0.5" y="0.5" width="34" height="34" rx="17" stroke="white" stroke-opacity="0.3"/>
<path d="M11.732 12.9551C11.6313 12.9009 11.5184 12.8736 11.4041 12.8761C11.2898 12.8786 11.1781 12.9107 11.0799 12.9693C10.9817 13.0279 10.9004 13.1109 10.844 13.2104C10.7875 13.3098 10.7578 13.4221 10.7578 13.5365V21.904C10.7578 22.0792 10.8274 22.2473 10.9513 22.3712C11.0752 22.495 11.2432 22.5646 11.4184 22.5646C11.5936 22.5646 11.7616 22.495 11.8855 22.3712C12.0094 22.2473 12.079 22.0792 12.079 21.904V14.6427L16.83 17.2006C17.0256 17.3063 17.2616 17.3063 17.4572 17.2006L22.2082 14.6427V21.904C22.2082 22.0792 22.2778 22.2473 22.4017 22.3712C22.5256 22.495 22.6936 22.5646 22.8688 22.5646C23.044 22.5646 23.212 22.495 23.3359 22.3712C23.4598 22.2473 23.5294 22.0792 23.5294 21.904V13.5365C23.5294 13.4221 23.4997 13.3098 23.4432 13.2104C23.3868 13.1109 23.3055 13.0279 23.2073 12.9693C23.1091 12.9107 22.9974 12.8786 22.8831 12.8761C22.7688 12.8736 22.6558 12.9009 22.5552 12.9551L17.1436 15.8688L11.732 12.9551Z" fill="white"/>
<path fill-rule="evenodd" clip-rule="evenodd" d="M21.8203 10.2088C18.7085 9.93041 15.578 9.93041 12.4662 10.2088L11.1292 10.3277C10.4327 10.3899 9.77754 10.685 9.26948 11.1654C8.76142 11.6458 8.43012 12.2835 8.3291 12.9753C7.8903 15.9758 7.8903 19.0242 8.3291 22.0247C8.43034 22.7165 8.76185 23.3541 9.27007 23.8343C9.77829 24.3146 10.4336 24.6095 11.13 24.6715L12.4653 24.7913C15.5781 25.0696 18.7084 25.0696 21.8212 24.7913L23.1573 24.6715C23.8537 24.6093 24.5087 24.3143 25.0168 23.8341C25.5248 23.3538 25.8562 22.7164 25.9574 22.0247C26.3962 19.0242 26.3962 15.9758 25.9574 12.9753C25.8563 12.2833 25.5249 11.6456 25.0167 11.1651C24.5084 10.6847 23.8531 10.3897 23.1564 10.3277L21.8203 10.2088ZM12.5842 11.5247C15.6181 11.2528 18.6702 11.2528 21.704 11.5247L23.0402 11.6445C23.4407 11.68 23.8176 11.8496 24.1099 12.1258C24.4022 12.4019 24.5929 12.7686 24.6512 13.1665C25.0714 16.0402 25.0714 18.9598 24.6512 21.8335C24.5929 22.2314 24.4022 22.5981 24.1099 22.8742C23.8176 23.1504 23.4407 23.32 23.0402 23.3556L21.704 23.4753C18.6705 23.7466 15.6177 23.7466 12.5842 23.4753L11.2481 23.3556C10.8475 23.32 10.4706 23.1504 10.1783 22.8742C9.88601 22.5981 9.69533 22.2314 9.63709 21.8335C9.21682 18.9598 9.21682 16.0402 9.63709 13.1665C9.69533 12.7686 9.88601 12.4019 10.1783 12.1258C10.4706 11.8496 10.8475 11.68 11.2481 11.6445L12.5842 11.5247Z" fill="white"/>
</svg>
