<svg width="74" height="74" viewBox="0 0 74 74" fill="none" xmlns="http://www.w3.org/2000/svg">
<g clip-path="url(#clip0_4739_3494)">
<path d="M9.77122 16.7863L44.5162 4.14018C49.7843 2.22274 55.5934 4.93157 57.5109 10.1997L69.6675 43.5997C71.5849 48.8678 68.8761 54.6769 63.608 56.5944L28.863 69.2405C23.5949 71.158 17.7858 68.4491 15.8683 63.181L3.71171 29.781C1.79428 24.5129 4.5031 18.7038 9.77122 16.7863Z" fill="#001E36"/>
<path d="M24.3765 26.5766C23.704 26.8214 23.0315 27.0661 22.345 27.3417C21.6579 27.617 21.0077 27.8537 20.4107 28.0967C19.8136 28.3392 19.2533 28.5431 18.7234 28.7612C18.2158 28.9712 17.8573 29.1017 17.4761 29.2405C17.3193 29.2975 17.2847 29.4115 17.3419 29.5687L25.7374 52.6351C25.8108 52.8369 25.9331 52.8942 26.1125 52.8289L30.4614 51.246C30.6099 51.1663 30.6732 50.9909 30.5935 50.8424L27.9745 43.6468C28.4002 43.4918 28.7142 43.3775 28.9467 43.3181C29.1789 43.2589 29.5374 43.1284 30.0754 42.9326C31.9138 42.2634 33.5216 41.4498 34.8417 40.3348C36.1031 39.2664 37.0159 37.868 37.4554 36.2862C37.8952 34.7046 37.7642 32.9498 37.0626 31.022C36.6954 30.0133 36.1656 29.1147 35.4867 28.2956C34.7813 27.4661 33.9059 26.7978 32.9199 26.3358C31.766 25.8179 30.5113 25.5634 29.2468 25.5907C27.8201 25.577 26.2145 25.9076 24.3765 26.5766ZM26.4837 30.8099C27.2878 30.5344 28.1161 30.3909 28.9487 30.4211C29.6887 30.4311 30.3899 30.6838 30.9832 31.1276C31.5601 31.6003 31.9909 32.2273 32.2252 32.9355C32.5841 33.9215 32.6372 34.7656 32.3703 35.4972C32.0808 36.2371 31.6084 36.8917 30.9648 37.3544C30.233 37.9254 29.4076 38.3777 28.5334 38.6959L27.3452 39.1283C27.0762 39.2262 26.7772 39.3098 26.4551 39.4018L23.7137 31.8699C23.8623 31.7902 24.1681 31.6536 24.6248 31.5131C25.0424 31.3354 25.5576 31.1479 26.1406 30.9357C26.2545 30.8911 26.3688 30.8491 26.4837 30.8099ZM45.7005 25.1116C44.1088 25.691 42.8758 26.4187 42.0183 27.34C41.2178 28.1393 40.6491 29.1583 40.4151 30.2587C40.2241 31.2679 40.2891 32.2847 40.64 33.2489C40.9095 34.0489 41.3725 34.7699 41.9879 35.3477C42.6816 35.949 43.5006 36.388 44.3853 36.6327C45.6169 36.9483 46.8844 37.1014 48.1557 37.0882C49.4089 37.1142 50.2711 37.1812 50.736 37.3419C51.2007 37.5031 51.4862 37.729 51.6005 38.043C51.7473 38.4465 51.6394 38.9175 51.3379 39.2048C51.0078 39.5534 50.4434 39.8859 49.5915 40.196C48.695 40.5223 47.7572 40.7365 46.8237 40.8226C45.766 40.9601 44.6932 40.9309 43.6445 40.736C43.5609 40.7155 43.4855 40.7177 43.4346 40.7871C43.3836 40.8561 43.3939 40.9538 43.4184 41.021L44.838 44.9215C44.8811 45.109 45.0499 45.2251 45.2397 45.2574C46.0902 45.3325 46.947 45.2939 47.7873 45.1427C48.8695 44.9773 49.9104 44.6998 50.9414 44.3246C52.5554 43.7371 53.8111 43.0011 54.738 42.1307C55.5999 41.36 56.2213 40.3471 56.5223 39.2217C56.7891 38.1261 56.7156 36.9751 56.3115 35.9223C56.0423 35.1139 55.5765 34.385 54.9559 33.8011C54.2522 33.1938 53.4185 32.7866 52.5075 32.5851C51.1779 32.2994 49.8193 32.1717 48.4598 32.2048C47.8375 32.1778 47.2166 32.1243 46.5989 32.0444C46.2505 31.9936 45.9081 31.8898 45.6166 31.7165C45.4167 31.586 45.2539 31.4173 45.1805 31.2155C45.1071 31.0138 45.0928 30.7653 45.1393 30.5451C45.2149 30.2639 45.404 30.017 45.6708 29.8438C46.0563 29.5768 46.5024 29.3378 46.9586 29.197C47.8105 28.8869 48.6806 28.6973 49.5756 28.5748C50.3951 28.4541 51.202 28.4398 52.0051 28.554C52.1109 28.566 52.2231 28.5251 52.4086 28.4072C52.4342 28.3684 52.4503 28.3242 52.4556 28.2782C52.4609 28.2321 52.4553 28.1854 52.4391 28.1419L51.1093 24.4881C51.0765 24.3982 51.0213 24.3169 50.9664 24.2355C50.8889 24.1624 50.7666 24.105 50.669 24.1153C49.9587 24.0876 49.2478 24.1501 48.5533 24.3013C47.5841 24.5023 46.6308 24.7734 45.7005 25.1116Z" fill="#31A8FF"/>
</g>
<defs>
<clipPath id="clip0_4739_3494">
<rect width="57.2519" height="57.2519" fill="white" transform="translate(0 19.582) rotate(-20)"/>
</clipPath>
</defs>
</svg>
