<svg width="57" height="57" viewBox="0 0 57 57" fill="none" xmlns="http://www.w3.org/2000/svg">
<g clip-path="url(#clip0_9779_11972)">
<path d="M14.25 27.5664V42.7506H29.4342L26.2675 39.5839H17.4167V30.7331L14.25 27.5664Z" fill="#3B80D0"/>
<path d="M55.2102 51.1259L50.666 46.5184V50.6668H6.33271V44.0959H9.49937V41.5626H6.33271V31.0334H9.49937V28.5001H6.33271V18.3668H9.49937V15.8334H6.33271V6.98259L31.571 32.0784V27.6134L5.87354 2.04259C5.65208 1.8193 5.36914 1.66701 5.06079 1.60515C4.75244 1.54329 4.43265 1.57466 4.1422 1.69526C3.85174 1.81585 3.60378 2.02022 3.42993 2.28229C3.25608 2.54436 3.16421 2.85227 3.16604 3.16676V52.2501C3.16604 52.67 3.33286 53.0728 3.62979 53.3697C3.92672 53.6666 4.32945 53.8334 4.74938 53.8334H54.086C54.4005 53.8353 54.7084 53.7434 54.9705 53.5695C55.2326 53.3957 55.4369 53.1477 55.5575 52.8573C55.6781 52.5668 55.7095 52.247 55.6476 51.9387C55.5858 51.6303 55.4335 51.3474 55.2102 51.1259Z" fill="#3B80D0"/>
<path d="M38.0007 47.5003H44.334C45.1738 47.5003 45.9793 47.1666 46.5732 46.5728C47.167 45.9789 47.5007 45.1735 47.5007 44.3336V13.7753L43.859 7.07778C43.5773 6.58983 43.1706 6.18585 42.6808 5.90753C42.1909 5.6292 41.6357 5.48661 41.0723 5.49445C40.4962 5.49902 39.9323 5.66067 39.4412 5.96199C38.9502 6.26331 38.5506 6.69289 38.2857 7.20445L34.834 13.8069V44.3336C34.834 45.1735 35.1676 45.9789 35.7615 46.5728C36.3553 47.1666 37.1608 47.5003 38.0007 47.5003ZM38.0007 14.5669L41.0723 8.59778L44.334 14.5828V38.0003H38.0007V14.5669ZM38.0007 40.5811H44.334V44.4444H38.0007V40.5811Z" fill="#3B80D0"/>
</g>
<defs>
<clipPath id="clip0_9779_11972">
<rect width="57" height="57" fill="white"/>
</clipPath>
</defs>
</svg>
