<svg width="70" height="70" viewBox="0 0 70 70" fill="none" xmlns="http://www.w3.org/2000/svg">
<g clip-path="url(#clip0_9779_12171)">
<rect x="6.31055" y="4.54883" width="58.1828" height="62.574" fill="white"/>
<path fill-rule="evenodd" clip-rule="evenodd" d="M12.8349 0.109375C9.43812 0.109375 6.18047 1.45874 3.77859 3.86062C1.37671 6.2625 0.0273438 9.52015 0.0273438 12.9169V57.7433C0.0273438 61.1401 1.37671 64.3977 3.77859 66.7996C6.18047 69.2015 9.43812 70.5509 12.8349 70.5509H57.6613C61.0581 70.5509 64.3157 69.2015 66.7176 66.7996C69.1195 64.3977 70.4688 61.1401 70.4688 57.7433V12.9169C70.4688 9.52015 69.1195 6.2625 66.7176 3.86062C64.3157 1.45874 61.0581 0.109375 57.6613 0.109375H12.8349ZM18.9505 11.316L35.2481 27.6136H18.9505V43.9176L36.4136 62.5462V43.9176H51.5489L35.2513 27.6168H51.5489V11.316H18.9505Z" fill="#0055FF"/>
</g>
<defs>
<clipPath id="clip0_9779_12171">
<rect width="70" height="70" fill="white"/>
</clipPath>
</defs>
</svg>
