<svg width="79" height="79" viewBox="0 0 79 79" fill="none" xmlns="http://www.w3.org/2000/svg">
<g clip-path="url(#clip0_4739_3482)">
<path d="M19.217 12.6156L5.88275 41.2109C2.6338 48.1783 5.64819 56.4603 12.6156 59.7093L41.2109 73.0435C48.1783 76.2925 56.4603 73.2781 59.7093 66.3107L73.0435 37.7153C76.2925 30.7479 73.2781 22.4659 66.3107 19.217L37.7153 5.88275C30.7479 2.6338 22.4659 5.64819 19.217 12.6156Z" fill="#F4F2ED"/>
<mask id="mask0_4739_3482" style="mask-type:luminance" maskUnits="userSpaceOnUse" x="11" y="15" width="56" height="49">
<path d="M11.8691 43.7445L24.9445 15.7042L66.9965 35.3134L53.9211 63.3537L11.8691 43.7445Z" fill="white"/>
</mask>
<g mask="url(#mask0_4739_3482)">
<path d="M57.1919 56.3405C58.996 52.4717 57.3203 47.8678 53.4515 46.0637L46.4427 42.7955L43.1745 49.8041C41.3705 53.6729 43.0463 58.2771 46.9151 60.0811C50.7838 61.8852 55.3879 60.2093 57.1919 56.3405Z" fill="#0ACF83"/>
<path d="M32.8973 53.5459C29.0285 51.7418 27.3529 47.1377 29.1569 43.2689L32.4251 36.2603L46.4423 42.7966L43.1741 49.8052C41.3701 53.674 36.7661 55.3499 32.8973 53.5459Z" fill="#3B80D0"/>
<path d="M18.8797 47.0088C15.0109 45.2047 13.3353 40.6006 15.1394 36.7318L18.4075 29.7232L32.4249 36.2596L29.1568 43.2682C27.3527 47.137 22.7485 48.8128 18.8797 47.0088Z" fill="#F24E1E"/>
<path d="M18.4082 29.723L21.6764 22.7144C23.4804 18.8457 28.0844 17.1697 31.9532 18.9738C35.822 20.7778 37.4978 25.3821 35.6938 29.2509L32.4256 36.2594L18.4082 29.723Z" fill="#FF7262"/>
<path d="M45.9708 25.5109C49.8396 27.3149 51.5152 31.9191 49.7111 35.7879C47.9071 39.6566 43.3032 41.3323 39.4344 39.5283C35.5656 37.7243 33.8899 33.1203 35.6939 29.2515C37.498 25.3828 42.102 23.7069 45.9708 25.5109Z" fill="#1ABCFE"/>
</g>
</g>
<defs>
<clipPath id="clip0_4739_3482">
<rect width="59.391" height="59.391" fill="white" transform="translate(0 53.8265) rotate(-65)"/>
</clipPath>
</defs>
</svg>
