<svg width="115" height="25" viewBox="0 0 115 25" fill="none" xmlns="http://www.w3.org/2000/svg">
<path d="M12.4996 17.9954L8.17669 20.5996C7.98572 20.7211 7.78607 20.7732 7.57773 20.7559C7.3694 20.7385 7.18711 20.6691 7.03086 20.5475C6.87461 20.426 6.75308 20.2743 6.66628 20.0923C6.57947 19.9104 6.56211 19.7062 6.61419 19.4798L7.76003 14.5579L3.9319 11.2507C3.75829 11.0944 3.64996 10.9163 3.6069 10.7163C3.56385 10.5163 3.57669 10.3211 3.64544 10.1309C3.71419 9.94058 3.81836 9.78433 3.95794 9.66211C4.09753 9.53989 4.2885 9.46176 4.53086 9.42773L9.58294 8.98503L11.5361 4.34961C11.6229 4.14128 11.7576 3.98503 11.9402 3.88086C12.1229 3.77669 12.3093 3.72461 12.4996 3.72461C12.6899 3.72461 12.8763 3.77669 13.059 3.88086C13.2416 3.98503 13.3763 4.14128 13.4632 4.34961L15.4163 8.98503L20.4684 9.42773C20.7114 9.46246 20.9024 9.54058 21.0413 9.66211C21.1802 9.78364 21.2843 9.93989 21.3538 10.1309C21.4232 10.3218 21.4364 10.5173 21.3934 10.7173C21.3503 10.9173 21.2416 11.0951 21.0673 11.2507L17.2392 14.5579L18.385 19.4798C18.4371 19.7055 18.4197 19.9097 18.3329 20.0923C18.2461 20.275 18.1246 20.4267 17.9684 20.5475C17.8121 20.6684 17.6298 20.7378 17.4215 20.7559C17.2132 20.7739 17.0135 20.7218 16.8225 20.5996L12.4996 17.9954Z" fill="#FFB522"/>
<path d="M42.4996 17.9954L38.1767 20.5996C37.9857 20.7211 37.7861 20.7732 37.5777 20.7559C37.3694 20.7385 37.1871 20.6691 37.0309 20.5475C36.8746 20.426 36.7531 20.2743 36.6663 20.0923C36.5795 19.9104 36.5621 19.7062 36.6142 19.4798L37.76 14.5579L33.9319 11.2507C33.7583 11.0944 33.65 10.9163 33.6069 10.7163C33.5638 10.5163 33.5767 10.3211 33.6454 10.1309C33.7142 9.94058 33.8184 9.78433 33.9579 9.66211C34.0975 9.53989 34.2885 9.46176 34.5309 9.42773L39.5829 8.98503L41.5361 4.34961C41.6229 4.14128 41.7576 3.98503 41.9402 3.88086C42.1229 3.77669 42.3093 3.72461 42.4996 3.72461C42.6899 3.72461 42.8763 3.77669 43.059 3.88086C43.2416 3.98503 43.3763 4.14128 43.4632 4.34961L45.4163 8.98503L50.4684 9.42773C50.7114 9.46246 50.9024 9.54058 51.0413 9.66211C51.1802 9.78364 51.2843 9.93989 51.3538 10.1309C51.4232 10.3218 51.4364 10.5173 51.3934 10.7173C51.3503 10.9173 51.2416 11.0951 51.0673 11.2507L47.2392 14.5579L48.385 19.4798C48.4371 19.7055 48.4197 19.9097 48.3329 20.0923C48.2461 20.275 48.1246 20.4267 47.9684 20.5475C47.8121 20.6684 47.6298 20.7378 47.4215 20.7559C47.2132 20.7739 47.0135 20.7218 46.8225 20.5996L42.4996 17.9954Z" fill="#FFB522"/>
<path d="M72.4996 17.9954L68.1767 20.5996C67.9857 20.7211 67.7861 20.7732 67.5777 20.7559C67.3694 20.7385 67.1871 20.6691 67.0309 20.5475C66.8746 20.426 66.7531 20.2743 66.6663 20.0923C66.5795 19.9104 66.5621 19.7062 66.6142 19.4798L67.76 14.5579L63.9319 11.2507C63.7583 11.0944 63.65 10.9163 63.6069 10.7163C63.5638 10.5163 63.5767 10.3211 63.6454 10.1309C63.7142 9.94058 63.8184 9.78433 63.9579 9.66211C64.0975 9.53989 64.2885 9.46176 64.5309 9.42773L69.5829 8.98503L71.5361 4.34961C71.6229 4.14128 71.7576 3.98503 71.9402 3.88086C72.1229 3.77669 72.3093 3.72461 72.4996 3.72461C72.6899 3.72461 72.8763 3.77669 73.059 3.88086C73.2416 3.98503 73.3763 4.14128 73.4632 4.34961L75.4163 8.98503L80.4684 9.42773C80.7114 9.46246 80.9024 9.54058 81.0413 9.66211C81.1802 9.78364 81.2843 9.93989 81.3538 10.1309C81.4232 10.3218 81.4364 10.5173 81.3934 10.7173C81.3503 10.9173 81.2416 11.0951 81.0673 11.2507L77.2392 14.5579L78.385 19.4798C78.4371 19.7055 78.4197 19.9097 78.3329 20.0923C78.2461 20.275 78.1246 20.4267 77.9684 20.5475C77.8121 20.6684 77.6298 20.7378 77.4215 20.7559C77.2132 20.7739 77.0135 20.7218 76.8225 20.5996L72.4996 17.9954Z" fill="#FFB522"/>
<path d="M102.5 17.9954L98.1767 20.5996C97.9857 20.7211 97.7861 20.7732 97.5777 20.7559C97.3694 20.7385 97.1871 20.6691 97.0309 20.5475C96.8746 20.426 96.7531 20.2743 96.6663 20.0923C96.5795 19.9104 96.5621 19.7062 96.6142 19.4798L97.76 14.5579L93.9319 11.2507C93.7583 11.0944 93.65 10.9163 93.6069 10.7163C93.5638 10.5163 93.5767 10.3211 93.6454 10.1309C93.7142 9.94058 93.8184 9.78433 93.9579 9.66211C94.0975 9.53989 94.2885 9.46176 94.5309 9.42773L99.5829 8.98503L101.536 4.34961C101.623 4.14128 101.758 3.98503 101.94 3.88086C102.123 3.77669 102.309 3.72461 102.5 3.72461C102.69 3.72461 102.876 3.77669 103.059 3.88086C103.242 3.98503 103.376 4.14128 103.463 4.34961L105.416 8.98503L110.468 9.42773C110.711 9.46246 110.902 9.54058 111.041 9.66211C111.18 9.78364 111.284 9.93989 111.354 10.1309C111.423 10.3218 111.436 10.5173 111.393 10.7173C111.35 10.9173 111.242 11.0951 111.067 11.2507L107.239 14.5579L108.385 19.4798C108.437 19.7055 108.42 19.9097 108.333 20.0923C108.246 20.275 108.125 20.4267 107.968 20.5475C107.812 20.6684 107.63 20.7378 107.421 20.7559C107.213 20.7739 107.013 20.7218 106.823 20.5996L102.5 17.9954Z" fill="#FFB522"/>
</svg>
