<svg width="108" height="108" viewBox="0 0 108 108" fill="none" xmlns="http://www.w3.org/2000/svg">
<g opacity="0.95" filter="url(#filter0_f_4739_3522)">
<path d="M8.69022 47.0245C7.24279 48.9365 6.18728 51.1156 5.58429 53.4367C4.9813 55.7578 4.8427 58.1751 5.17645 60.5499C5.51021 62.9246 6.30974 65.2101 7.52914 67.275C8.74854 69.34 10.3638 71.1437 12.2822 72.5827L47.0228 98.7617C48.9349 100.209 51.114 101.265 53.435 101.868C55.7561 102.471 58.1734 102.609 60.5482 102.275C62.923 101.942 65.2084 101.142 67.2734 99.9228C69.3383 98.7034 71.1421 97.0881 72.5811 95.1697L98.76 60.4291C100.207 58.517 101.263 56.3379 101.866 54.0169C102.469 51.6958 102.608 49.2785 102.274 46.9037C101.94 44.5289 101.141 42.2435 99.9211 40.1785C98.7017 38.1136 97.0864 36.3098 95.168 34.8708L60.4274 8.69189C58.5154 7.24445 56.3363 6.18895 54.0152 5.58596C51.6941 4.98297 49.2768 4.84437 46.902 5.17812C44.5273 5.51187 42.2418 6.3114 40.1769 7.5308C38.1119 8.75021 36.3082 10.3655 34.8692 12.2839L8.69022 47.0245ZM27.4054 42.1283L46.2074 39.493L49.2525 61.058L49.1471 61.0704C48.848 60.3121 48.3026 59.6764 47.5986 59.2655C46.8946 58.8546 46.0729 58.6924 45.2656 58.8049L30.0534 60.9357L27.4054 42.1283ZM48.1479 38.9727L66.9546 36.3368L72.5709 76.163L53.7642 78.7989L48.1479 38.9727Z" fill="white"/>
</g>
<defs>
<filter id="filter0_f_4739_3522" x="0" y="0" width="107.451" height="107.453" filterUnits="userSpaceOnUse" color-interpolation-filters="sRGB">
<feFlood flood-opacity="0" result="BackgroundImageFix"/>
<feBlend mode="normal" in="SourceGraphic" in2="BackgroundImageFix" result="shape"/>
<feGaussianBlur stdDeviation="2.5" result="effect1_foregroundBlur_4739_3522"/>
</filter>
</defs>
</svg>
