<svg width="57" height="57" viewBox="0 0 57 57" fill="none" xmlns="http://www.w3.org/2000/svg">
<path d="M54.0342 16.6168L43.6072 11.4045C42.4583 9.14895 39.3612 7.57031 35.625 7.57031C30.8802 7.57031 27.1641 10.113 27.1641 13.3594C27.1656 13.9345 27.2837 14.5034 27.5114 15.0315L22.613 17.4807C21.104 16.8037 19.4664 16.4612 17.8125 16.4766C13.0677 16.4766 9.35156 19.0193 9.35156 22.2656C9.35308 22.8408 9.47125 23.4096 9.69891 23.9378L2.96578 27.3043C2.74362 27.4152 2.55677 27.5859 2.42619 27.7971C2.29562 28.0083 2.22649 28.2517 2.22656 28.5V42.75C2.22649 42.9983 2.29562 43.2417 2.42619 43.4529C2.55677 43.6641 2.74362 43.8348 2.96578 43.9457L17.2158 51.0707C17.4011 51.1632 17.6054 51.2113 17.8125 51.2113C18.0196 51.2113 18.2239 51.1632 18.4092 51.0707L54.0342 33.2582C54.2564 33.1473 54.4432 32.9766 54.5738 32.7654C54.7044 32.5542 54.7735 32.3108 54.7734 32.0625V17.8125C54.7735 17.5642 54.7044 17.3208 54.5738 17.1096C54.4432 16.8984 54.2564 16.7277 54.0342 16.6168ZM17.8125 34.131L6.55055 28.5L11.3978 26.0775C12.9363 27.2954 15.2208 28.0547 17.8125 28.0547C22.5573 28.0547 26.2734 25.512 26.2734 22.2656C26.258 21.1429 25.8273 20.0658 25.0644 19.242L29.2103 17.1713C30.7488 18.3892 33.0333 19.1484 35.625 19.1484C39.7731 19.1484 43.1374 17.2046 43.9145 14.5461L50.4495 17.8125L17.8125 34.131ZM35.625 10.2422C39.0361 10.2422 41.4141 11.8854 41.4141 13.3594C41.4141 14.8334 39.0361 16.4766 35.625 16.4766C32.2139 16.4766 29.8359 14.8334 29.8359 13.3594C29.8359 11.8854 32.2139 10.2422 35.625 10.2422ZM17.8125 19.1484C21.2236 19.1484 23.6016 20.7916 23.6016 22.2656C23.6016 23.7396 21.2236 25.3828 17.8125 25.3828C14.4014 25.3828 12.0234 23.7396 12.0234 22.2656C12.0234 20.7916 14.4014 19.1484 17.8125 19.1484ZM4.89844 30.662L16.4766 36.4511V47.713L4.89844 41.9239V30.662ZM19.1484 47.713V36.4511L52.1016 19.9745V31.2364L19.1484 47.713Z" fill="#3B80D0"/>
</svg>
