<svg width="62" height="62" viewBox="0 0 62 62" fill="none" xmlns="http://www.w3.org/2000/svg">
<path d="M1 31.0019C1 16.8599 1 9.78581 5.3929 5.3929C9.78581 1 16.8568 1 31.0019 1C45.1438 1 52.2148 1 56.6108 5.3929C61.0006 9.78581 61.0006 16.8568 61.0006 31.0019C61.0006 45.1438 61.0006 52.2179 56.6108 56.6108C52.2148 61.0037 45.1469 61.0037 30.9987 61.0037C16.8568 61.0037 9.78581 61.0037 5.3929 56.6108C1 52.2179 1 45.1469 1 31.0019Z" fill="white" stroke="white" stroke-width="2" stroke-linecap="round" stroke-linejoin="round"/>
<path d="M27.2194 31.0024L12.0605 38.8976C12.0605 42.6179 12.0605 42.9021 13.1722 44.058C14.2807 45.2138 16.0682 45.2138 19.64 45.2138H34.802C38.3769 45.2138 40.1644 45.2138 41.276 44.058C42.3877 42.9021 42.3845 42.6179 42.3845 38.8976M27.2194 31.0024L49.9576 19.1596L27.2194 31.0024ZM27.2194 31.0024L12.0605 23.1072C12.0605 19.3838 12.0605 19.1027 13.1722 17.9469C14.2807 16.791 16.0682 16.791 19.64 16.791H34.802C38.3769 16.791 40.1644 16.791 41.276 17.9469C42.3877 19.1027 42.3845 19.3838 42.3845 23.1072M27.2194 31.0024L49.9576 42.8453L27.2194 31.0024Z" fill="white"/>
<path d="M27.2194 31.0024L12.0605 38.8976C12.0605 42.6179 12.0605 42.9021 13.1722 44.058C14.2807 45.2138 16.0682 45.2138 19.64 45.2138H34.802C38.3769 45.2138 40.1644 45.2138 41.276 44.058C42.3877 42.9021 42.3845 42.6179 42.3845 38.8976M27.2194 31.0024L49.9576 19.1596M27.2194 31.0024L12.0605 23.1072C12.0605 19.3838 12.0605 19.1027 13.1722 17.9469C14.2807 16.791 16.0682 16.791 19.64 16.791H34.802C38.3769 16.791 40.1644 16.791 41.276 17.9469C42.3877 19.1027 42.3845 19.3838 42.3845 23.1072M27.2194 31.0024L49.9576 42.8453" stroke="black" stroke-width="6" stroke-linecap="round" stroke-linejoin="round"/>
</svg>
