<svg width="70" height="70" viewBox="0 0 70 70" fill="none" xmlns="http://www.w3.org/2000/svg">
<g clip-path="url(#clip0_9779_12183)">
<path d="M53.5938 0H16.4062C7.34533 0 0 7.34533 0 16.4062V53.5938C0 62.6547 7.34533 70 16.4062 70H53.5938C62.6547 70 70 62.6547 70 53.5938V16.4062C70 7.34533 62.6547 0 53.5938 0Z" fill="#F4F2ED"/>
<mask id="mask0_9779_12183" style="mask-type:luminance" maskUnits="userSpaceOnUse" x="16" y="7" width="38" height="56">
<path d="M16.6797 7.65625H53.1453V62.3438H16.6797V7.65625Z" fill="white"/>
</mask>
<g mask="url(#mask0_9779_12183)">
<path d="M25.7984 62.3445C30.8296 62.3445 34.9129 58.2613 34.9129 53.23V44.1152H25.7984C20.7671 44.1152 16.6836 48.1988 16.6836 53.23C16.6836 58.2613 20.7671 62.3445 25.7984 62.3445Z" fill="#0ACF83"/>
<path d="M16.6836 34.9993C16.6836 29.968 20.7671 25.8848 25.7984 25.8848H34.9129V44.1137H25.7984C20.7671 44.1137 16.6836 40.0305 16.6836 34.9993Z" fill="#3B80D0"/>
<path d="M16.6836 16.7707C16.6836 11.7395 20.7671 7.65625 25.7984 7.65625H34.9129V25.8855H25.7984C20.7671 25.8855 16.6836 21.802 16.6836 16.7707Z" fill="#F24E1E"/>
<path d="M34.9141 7.65625H44.0286C49.0598 7.65625 53.1433 11.7395 53.1433 16.7707C53.1433 21.802 49.0598 25.8855 44.0286 25.8855H34.9141V7.65625Z" fill="#FF7262"/>
<path d="M53.1433 34.9993C53.1433 40.0305 49.0598 44.1137 44.0286 44.1137C38.9973 44.1137 34.9141 40.0305 34.9141 34.9993C34.9141 29.968 38.9973 25.8848 44.0286 25.8848C49.0598 25.8848 53.1433 29.968 53.1433 34.9993Z" fill="#1ABCFE"/>
</g>
</g>
<defs>
<clipPath id="clip0_9779_12183">
<rect width="70" height="70" fill="white"/>
</clipPath>
</defs>
</svg>
