<svg width="57" height="57" viewBox="0 0 57 57" fill="none" xmlns="http://www.w3.org/2000/svg">
<g clip-path="url(#clip0_9779_11984)">
<path d="M24.9375 42.7773V26.0503L7.125 17.144V41.6362L22.2656 49.2344L21.4028 52.769L3.5625 43.8628V13.1362L26.7188 1.58594L49.875 13.1362V20.6509C48.5762 20.855 47.3887 21.2725 46.3125 21.9033V17.144L28.5 26.0503V39.2148L24.9375 42.7773ZM20.9854 8.40479L37.2393 17.7007L44.1138 14.2495L26.7188 5.53809L20.9854 8.40479ZM26.7188 22.9609L33.3984 19.6211L17.1445 10.3252L9.32373 14.2495L26.7188 22.9609ZM51.4336 24.937C52.2129 24.937 52.9365 25.0762 53.6045 25.3545C54.2725 25.6328 54.8662 26.0132 55.3857 26.4956C55.9053 26.978 56.2949 27.5625 56.5547 28.249C56.8145 28.9355 56.9629 29.6685 57 30.4478C57 31.1714 56.8608 31.8765 56.5825 32.563C56.3042 33.2495 55.9053 33.8525 55.3857 34.3721L35.4302 54.3276L24.9375 56.9438L27.5537 46.4512L47.5093 26.5234C48.0474 25.9854 48.6504 25.5864 49.3184 25.3267C49.9863 25.0669 50.6914 24.937 51.4336 24.937ZM52.853 31.8672C53.2427 31.4775 53.4375 31.0044 53.4375 30.4478C53.4375 29.8726 53.252 29.4087 52.8809 29.0562C52.5098 28.7036 52.0273 28.5181 51.4336 28.4995C51.1738 28.4995 50.9233 28.5366 50.6821 28.6108C50.4409 28.6851 50.2275 28.8242 50.042 29.0283L30.7822 48.2881L29.8359 52.0454L33.5933 51.0991L52.853 31.8672Z" fill="#3B80D0"/>
</g>
<defs>
<clipPath id="clip0_9779_11984">
<rect width="57" height="57" fill="white"/>
</clipPath>
</defs>
</svg>
