<svg width="56" height="56" viewBox="0 0 56 56" fill="none" xmlns="http://www.w3.org/2000/svg">
<g opacity="0.2" filter="url(#filter0_f_4739_3507)">
<path d="M24.8785 11.0726C23.9075 11.2439 22.9798 11.6046 22.1482 12.1344C21.3166 12.6642 20.5976 13.3525 20.032 14.1602C19.4665 14.9679 19.0656 15.879 18.8522 16.8416C18.6388 17.8042 18.6171 18.7994 18.7883 19.7704C18.9595 20.7414 19.3203 21.6692 19.85 22.5007C20.3798 23.3323 21.0682 24.0514 21.8758 24.6169C22.6835 25.1825 23.5946 25.5834 24.5572 25.7968C25.5198 26.0102 26.5151 26.0319 27.4861 25.8607C29.4471 25.5149 31.1904 24.4043 32.3325 22.7731C33.4747 21.142 33.9221 19.1239 33.5763 17.1629C33.2305 15.2019 32.1199 13.4585 30.4887 12.3164C28.8576 11.1743 26.8395 10.7269 24.8785 11.0726ZM18.1489 30.5566C17.1598 30.7076 16.2108 31.0547 15.3577 31.5776C14.5047 32.1005 13.7647 32.7887 13.1814 33.6016C12.5981 34.4145 12.1831 35.3359 11.9609 36.3114C11.7387 37.287 11.7138 38.2972 11.8875 39.2825C12.0613 40.2679 12.4302 41.2086 12.9727 42.0494C13.5152 42.8901 14.2202 43.614 15.0464 44.1784C15.8726 44.7428 16.8032 45.1363 17.7837 45.3359C18.7642 45.5355 19.7746 45.5372 20.7557 45.3407C22.6788 44.9556 24.3748 43.8334 25.4811 42.2139C26.5874 40.5945 27.0161 38.6065 26.6756 36.675C26.335 34.7436 25.2522 33.0221 23.6587 31.8787C22.0653 30.7353 20.0877 30.2608 18.1489 30.5566ZM37.8662 27.0799C36.8824 27.2369 35.9396 27.5881 35.0929 28.1131C34.2461 28.638 33.5123 29.3263 32.9342 30.1377C32.3561 30.9491 31.9453 31.8675 31.7257 32.8393C31.5061 33.8111 31.4821 34.8169 31.6551 35.798C31.8281 36.7792 32.1946 37.7161 32.7334 38.5541C33.2721 39.3922 33.9722 40.1147 34.793 40.6795C35.6137 41.2442 36.5387 41.64 37.5139 41.8437C38.4892 42.0474 39.4952 42.055 40.4734 41.866C42.4077 41.4923 44.1176 40.3733 45.2343 38.7503C46.3511 37.1274 46.7852 35.1306 46.4431 33.1905C46.101 31.2504 45.0101 29.5225 43.4056 28.3794C41.8011 27.2363 39.8117 26.7696 37.8662 27.0799Z" fill="#F06A6A"/>
</g>
<defs>
<filter id="filter0_f_4739_3507" x="-5" y="-4.99966" width="65.666" height="65.666" filterUnits="userSpaceOnUse" color-interpolation-filters="sRGB">
<feFlood flood-opacity="0" result="BackgroundImageFix"/>
<feBlend mode="normal" in="SourceGraphic" in2="BackgroundImageFix" result="shape"/>
<feGaussianBlur stdDeviation="2.5" result="effect1_foregroundBlur_4739_3507"/>
</filter>
</defs>
</svg>
