<svg width="70" height="70" viewBox="0 0 70 70" fill="none" xmlns="http://www.w3.org/2000/svg">
<g clip-path="url(#clip0_9779_12215)">
<path d="M12.4141 0.875H57.6406C64.4766 0.875 70.0547 6.39844 70.0547 13.2891V56.7656C70.0547 63.6016 64.5313 69.1797 57.6406 69.1797H12.4141C5.52344 69.125 0 63.6016 0 56.7109V13.2891C0 6.39844 5.52344 0.875 12.4141 0.875Z" fill="#330000"/>
<path d="M33.8505 41.7266H22.9677L20.7802 48.5625C20.7255 48.8359 20.5068 49 20.2333 48.9453H14.7646C14.4364 48.9453 14.3818 48.7812 14.4364 48.3984L23.8427 21.3828C23.9521 21.1094 24.0068 20.7812 24.1161 20.3984C24.2255 19.7969 24.2802 19.1406 24.2802 18.4844C24.2255 18.3203 24.3896 18.2109 24.4989 18.1563H32.0458C32.2646 18.1563 32.3739 18.2656 32.4286 18.375L43.0927 48.3984C43.2021 48.7266 43.0927 48.8906 42.8193 48.8906H36.6943C36.4755 48.9453 36.3114 48.7813 36.2021 48.5625L33.8505 41.7266ZM24.663 35.7656H32.0458C31.8818 35.1641 31.663 34.3984 31.3896 33.6875C31.1161 32.9219 30.8427 32.0469 30.6239 31.1719C30.3505 30.2422 30.0771 29.3672 29.8036 28.4922C29.5302 27.5625 29.2568 26.7422 29.038 25.9219C28.8193 25.1016 28.6005 24.3359 28.3818 23.625H28.3271C28.0536 24.8828 27.7255 26.1406 27.3427 27.3984C26.9052 28.8203 26.4677 30.2422 25.9755 31.7188C25.538 33.1953 25.1005 34.5625 24.663 35.7656ZM49.6005 23.3516C48.6161 23.4063 47.6864 23.0234 47.0302 22.3125C46.3739 21.6016 45.9911 20.6172 46.0458 19.6328C45.9911 18.6484 46.3739 17.7188 47.0849 17.0625C47.7958 16.4063 48.7255 16.0234 49.6552 16.0234C50.8036 16.0234 51.6786 16.3516 52.3349 17.0625C52.9911 17.7734 53.3193 18.7031 53.3193 19.6328C53.3739 20.6172 52.9911 21.6016 52.2802 22.3125C51.5693 23.0234 50.5849 23.4063 49.6005 23.3516ZM46.3193 48.6719V26.1953C46.3193 25.9219 46.4286 25.8125 46.7021 25.8125H52.4989C52.7724 25.8125 52.8818 25.9766 52.8818 26.1953V48.6719C52.8818 49 52.7724 49.1641 52.4989 49.1641H46.7568C46.4833 49.1094 46.3193 48.9453 46.3193 48.6719Z" fill="#FF9A00"/>
</g>
<defs>
<clipPath id="clip0_9779_12215">
<rect width="70" height="70" fill="white"/>
</clipPath>
</defs>
</svg>
