<svg width="70" height="70" viewBox="0 0 70 70" fill="none" xmlns="http://www.w3.org/2000/svg">
<g opacity="0.45" filter="url(#filter0_f_4739_3513)">
<g clip-path="url(#clip0_4739_3513)">
<path d="M18.7972 33.2349C17.339 35.7605 14.0882 36.6342 11.5621 35.1758C9.03613 33.7174 8.16492 30.4639 9.62312 27.9382C11.0813 25.4125 14.3353 24.5406 16.8609 25.9988L21.4468 28.6465L18.7972 33.2349ZM21.1089 34.5695C22.5671 32.0438 25.821 31.172 28.3467 32.6302C30.8724 34.0883 31.7445 37.342 30.2861 39.868L23.6546 51.3541C22.1964 53.8798 18.9428 54.7519 16.4167 53.2935C13.8911 51.8353 13.0192 48.5813 14.4774 46.0556L21.1089 34.5695Z" fill="#DE1C59"/>
<path d="M36.3333 18.7964C33.8076 17.3382 32.9339 14.0874 34.3923 11.5614C35.8507 9.03535 39.1042 8.16414 41.6299 9.62234C44.1556 11.0805 45.0275 14.3345 43.5693 16.8602L40.9217 21.446L36.3333 18.7964ZM34.9986 21.1081C37.5243 22.5663 38.3962 25.8203 36.938 28.3459C35.4798 30.8716 32.2262 31.7437 29.7002 30.2853L18.214 23.6538C15.6884 22.1956 14.8166 18.9422 16.275 16.4162C17.7332 13.8905 20.9871 13.0186 23.5128 14.4768L34.9986 21.1081Z" fill="#35C5F0"/>
<path d="M50.7717 36.3325C52.2299 33.8068 55.4807 32.9331 58.0068 34.3915C60.5328 35.8499 61.4043 39.1037 59.9461 41.6293C58.4879 44.155 55.234 45.0269 52.7083 43.5687L48.1225 40.9211L50.7717 36.3325ZM48.46 34.9978C47.0018 37.5235 43.7479 38.3954 41.2222 36.9372C38.6965 35.479 37.8244 32.2254 39.2828 29.6994L45.9143 18.2132C47.3725 15.6876 50.6259 14.8158 53.152 16.2742C55.6776 17.7324 56.5495 20.9864 55.0913 23.512L48.46 34.9978Z" fill="#2EB57D"/>
<path d="M33.2356 50.7709C35.7613 52.2291 36.635 55.48 35.1766 58.006C33.7182 60.532 30.4645 61.4035 27.9388 59.9453C25.4131 58.4871 24.5412 55.2332 25.9994 52.7075L28.647 48.1217L33.2356 50.7709ZM34.5703 48.4592C32.0446 47.001 31.1727 43.7471 32.6309 41.2214C34.0891 38.6957 37.3427 37.8236 39.8687 39.282L51.3549 45.9136C53.8805 47.3718 54.7526 50.6254 53.2942 53.1514C51.836 55.677 48.5821 56.5489 46.0564 55.0907L34.5703 48.4592Z" fill="#EBB02E"/>
</g>
</g>
<defs>
<filter id="filter0_f_4739_3513" x="-4.99914" y="-5" width="79.5684" height="79.5684" filterUnits="userSpaceOnUse" color-interpolation-filters="sRGB">
<feFlood flood-opacity="0" result="BackgroundImageFix"/>
<feBlend mode="normal" in="SourceGraphic" in2="BackgroundImageFix" result="shape"/>
<feGaussianBlur stdDeviation="2.5" result="effect1_foregroundBlur_4739_3513"/>
</filter>
<clipPath id="clip0_4739_3513">
<rect width="50.9275" height="50.9275" fill="white" transform="translate(25.4638) rotate(30)"/>
</clipPath>
</defs>
</svg>
