<svg width="72" height="72" viewBox="0 0 72 72" fill="none" xmlns="http://www.w3.org/2000/svg">
<path d="M1 36C1 19.5021 1 11.2495 6.12474 6.12474C11.2495 1 19.4984 1 36 1C52.4979 1 60.7468 1 65.8753 6.12474C70.9963 11.2495 70.9963 19.4984 70.9963 36C70.9963 52.4979 70.9963 60.7505 65.8753 65.8753C60.7468 71 52.5016 71 35.9963 71C19.4984 71 11.2495 71 6.12474 65.8753C1 60.7505 1 52.5016 1 36Z" fill="white" stroke="white" stroke-width="2" stroke-linecap="round" stroke-linejoin="round"/>
<path d="M31.5866 36.0008L13.9023 45.2113C13.9023 49.5514 13.9023 49.8829 15.1992 51.2314C16.4923 52.5798 18.5776 52.5798 22.7444 52.5798H40.4323C44.6029 52.5798 46.6881 52.5798 47.985 51.2314C49.2818 49.8829 49.2781 49.5514 49.2781 45.2113M31.5866 36.0008L58.1129 22.185L31.5866 36.0008ZM31.5866 36.0008L13.9023 26.7903C13.9023 22.4466 13.9023 22.1187 15.1992 20.7703C16.4923 19.4219 18.5776 19.4219 22.7444 19.4219H40.4323C44.6029 19.4219 46.6881 19.4219 47.985 20.7703C49.2818 22.1187 49.2781 22.4466 49.2781 26.7903M31.5866 36.0008L58.1129 49.8166L31.5866 36.0008Z" fill="white"/>
<path d="M31.5866 36.0008L13.9023 45.2114C13.9023 49.5514 13.9023 49.8829 15.1992 51.2314C16.4923 52.5798 18.5776 52.5798 22.7444 52.5798H40.4323C44.6029 52.5798 46.6881 52.5798 47.985 51.2314C49.2818 49.8829 49.2781 49.5514 49.2781 45.2114M31.5866 36.0008L58.1129 22.185M31.5866 36.0008L13.9023 26.7903C13.9023 22.4466 13.9023 22.1187 15.1992 20.7703C16.4923 19.4219 18.5776 19.4219 22.7444 19.4219H40.4323C44.6029 19.4219 46.6881 19.4219 47.985 20.7703C49.2818 22.1187 49.2781 22.4466 49.2781 26.7903M31.5866 36.0008L58.1129 49.8166" stroke="black" stroke-width="6" stroke-linecap="round" stroke-linejoin="round"/>
</svg>
