<svg width="70" height="70" viewBox="0 0 70 70" fill="none" xmlns="http://www.w3.org/2000/svg">
<g clip-path="url(#clip0_9779_12167)">
<path d="M15.9688 3.85286e-05C13.8704 -0.00457576 11.7919 0.405319 9.85236 1.20619C7.91286 2.00706 6.15064 3.18313 4.66689 4.66689C3.18313 6.15064 2.00706 7.91286 1.20619 9.85236C0.405319 11.7919 -0.00457576 13.8704 3.85286e-05 15.9688V54.0313C-0.00457576 56.1296 0.405319 58.2082 1.20619 60.1477C2.00706 62.0872 3.18313 63.8494 4.66689 65.3332C6.15064 66.8169 7.91286 67.993 9.85236 68.7939C11.7919 69.5947 13.8704 70.0046 15.9688 70H54.0313C56.1296 70.0046 58.2082 69.5947 60.1477 68.7939C62.0872 67.993 63.8494 66.8169 65.3332 65.3332C66.8169 63.8494 67.993 62.0872 68.7939 60.1477C69.5947 58.2082 70.0046 56.1296 70 54.0313V15.9688C70.0046 13.8704 69.5947 11.7919 68.7939 9.85236C67.993 7.91286 66.8169 6.15064 65.3332 4.66689C63.8494 3.18313 62.0872 2.00706 60.1477 1.20619C58.2082 0.405319 56.1296 -0.00457576 54.0313 3.85286e-05H15.9688ZM29.2455 10.5L40.988 22.2513L27.5217 35.735L27.4575 35.668C27.83 35.0597 27.987 34.3438 27.9034 33.6354C27.8198 32.9271 27.5005 32.2675 26.9967 31.7625L17.4971 22.2542L29.2455 10.5ZM42.3734 23.3334L54.1188 35.0875L29.2455 59.9842L17.5 48.23L42.3734 23.3334Z" fill="white"/>
</g>
<defs>
<clipPath id="clip0_9779_12167">
<rect width="70" height="70" fill="white"/>
</clipPath>
</defs>
</svg>
