<svg width="34" height="34" viewBox="0 0 34 34" fill="none" xmlns="http://www.w3.org/2000/svg">
<rect x="1.95703" y="2" width="30" height="30" rx="15" fill="white"/>
<path fill-rule="evenodd" clip-rule="evenodd" d="M21.4107 12.522C21.5984 12.7094 21.7039 12.9637 21.7041 13.2289C21.7043 13.4941 21.5992 13.7486 21.4118 13.9362L12.5793 22.7814C12.3919 22.9691 12.1376 23.0746 11.8724 23.0748C11.6071 23.075 11.3527 22.9698 11.165 22.7824C10.9774 22.595 10.8718 22.3407 10.8716 22.0755C10.8715 21.8103 10.9766 21.5559 11.164 21.3682L19.9965 12.523C20.1839 12.3354 20.4382 12.2298 20.7034 12.2296C20.9686 12.2295 21.2231 12.3346 21.4107 12.522Z" fill="#3B80D0"/>
<path fill-rule="evenodd" clip-rule="evenodd" d="M22.4701 11.4607C22.6578 11.6481 22.7632 11.9024 22.7634 12.1676L22.768 18.5315C22.7682 18.7968 22.6631 19.0513 22.4758 19.2391C22.2884 19.4269 22.0341 19.5325 21.7688 19.5328C21.5036 19.5331 21.249 19.428 21.0613 19.2406C20.8735 19.0532 20.7678 18.7989 20.7675 18.5337L20.7644 13.1688L15.4003 13.1727C15.135 13.1728 14.8806 13.0675 14.6929 12.88C14.5053 12.6925 14.3998 12.4381 14.3997 12.1728C14.3996 11.9076 14.5049 11.6531 14.6924 11.4655C14.8799 11.2778 15.1343 11.1724 15.3996 11.1723L21.7635 11.1677C22.0286 11.1679 22.2827 11.2732 22.4701 11.4607Z" fill="#3B80D0"/>
</svg>
