<svg width="35" height="35" viewBox="0 0 35 35" fill="none" xmlns="http://www.w3.org/2000/svg">
<rect x="0.5" y="0.5" width="34" height="34" rx="17" stroke="white" stroke-opacity="0.3"/>
<path d="M17.5301 10C13.4146 10 10.0603 13.3375 10.0603 17.4325C10.0603 18.745 10.407 20.02 11.0553 21.145L10 25L13.9573 23.965C15.0503 24.5575 16.2789 24.8725 17.5301 24.8725C21.6457 24.8725 25 21.535 25 17.44C25 15.4525 24.2236 13.585 22.8141 12.1825C22.1229 11.4881 21.2998 10.9375 20.3926 10.5628C19.4854 10.1881 18.5124 9.9968 17.5301 10ZM17.5377 11.2525C19.196 11.2525 20.7487 11.8975 21.9246 13.0675C22.5015 13.6417 22.959 14.3234 23.2707 15.0737C23.5824 15.824 23.7423 16.6281 23.7412 17.44C23.7412 20.845 20.9523 23.6125 17.5301 23.6125C16.4146 23.6125 15.3216 23.32 14.3719 22.75L14.1457 22.6225L11.794 23.2375L12.4196 20.9575L12.2688 20.7175C11.6466 19.7338 11.3173 18.5948 11.3191 17.4325C11.3266 14.0275 14.108 11.2525 17.5377 11.2525ZM14.8844 13.9975C14.7638 13.9975 14.5603 14.0425 14.3869 14.23C14.2211 14.4175 13.7312 14.875 13.7312 15.7825C13.7312 16.6975 14.402 17.575 14.4849 17.7025C14.5905 17.83 15.8116 19.705 17.6884 20.5C18.1332 20.7025 18.4799 20.815 18.7513 20.8975C19.196 21.04 19.603 21.0175 19.9271 20.9725C20.2889 20.92 21.0276 20.5225 21.1859 20.0875C21.3442 19.6525 21.3442 19.285 21.299 19.2025C21.2462 19.1275 21.1256 19.0825 20.9372 19C20.7487 18.895 19.8291 18.445 19.6633 18.385C19.4899 18.325 19.3844 18.295 19.2412 18.475C19.1206 18.6625 18.7588 19.0825 18.6533 19.2025C18.5402 19.33 18.4347 19.345 18.2538 19.255C18.0578 19.1575 17.4548 18.9625 16.7462 18.3325C16.1884 17.8375 15.8191 17.23 15.706 17.0425C15.6156 16.8625 15.6985 16.75 15.7889 16.6675C15.8719 16.585 15.9925 16.45 16.0678 16.3375C16.1658 16.2325 16.196 16.15 16.2563 16.03C16.3166 15.9025 16.2864 15.7975 16.2412 15.7075C16.196 15.625 15.8191 14.695 15.6608 14.3275C15.5101 13.9675 15.3593 14.0125 15.2387 14.005C15.1332 14.005 15.0126 13.9975 14.8844 13.9975Z" fill="white"/>
</svg>
