<svg width="45" height="45" viewBox="0 0 45 45" fill="none" xmlns="http://www.w3.org/2000/svg">
<rect width="45" height="45" rx="10" fill="#06B6D4"/>
<path d="M28.9119 9.58203H17.0869C16.3027 9.62914 15.5687 9.98377 15.0444 10.5689C14.5202 11.154 14.2479 11.9224 14.2869 12.707V31.2945C14.2479 32.0792 14.5202 32.8475 15.0444 33.4327C15.5687 34.0178 16.3027 34.3724 17.0869 34.4195H28.9119C29.6961 34.3724 30.4301 34.0178 30.9543 33.4327C31.4786 32.8475 31.7508 32.0792 31.7119 31.2945V12.707C31.7508 11.9224 31.4786 11.154 30.9543 10.5689C30.4301 9.98377 29.6961 9.62914 28.9119 9.58203ZM30.4619 31.2945C30.5004 31.7477 30.3596 32.198 30.0698 32.5486C29.78 32.8991 29.3642 33.1221 28.9119 33.1695H17.0869C16.6345 33.1221 16.2188 32.8991 15.929 32.5486C15.6392 32.198 15.4984 31.7477 15.5369 31.2945V12.707C15.4984 12.2538 15.6392 11.8036 15.929 11.453C16.2188 11.1024 16.6345 10.8795 17.0869 10.832H18.9994V11.4695C18.9994 11.8011 19.1311 12.119 19.3655 12.3534C19.5999 12.5878 19.9179 12.7195 20.2494 12.7195H25.7494C26.0809 12.7195 26.3988 12.5878 26.6333 12.3534C26.8677 12.119 26.9994 11.8011 26.9994 11.4695V10.832H28.9119C29.3642 10.8795 29.78 11.1024 30.0698 11.453C30.3596 11.8036 30.5004 12.2538 30.4619 12.707V31.2945Z" fill="white"/>
<path d="M20.5 30.668H25.5C25.6658 30.668 25.8247 30.6021 25.9419 30.4849C26.0592 30.3677 26.125 30.2087 26.125 30.043C26.125 29.8772 26.0592 29.7182 25.9419 29.601C25.8247 29.4838 25.6658 29.418 25.5 29.418H20.5C20.3342 29.418 20.1753 29.4838 20.0581 29.601C19.9408 29.7182 19.875 29.8772 19.875 30.043C19.875 30.2087 19.9408 30.3677 20.0581 30.4849C20.1753 30.6021 20.3342 30.668 20.5 30.668Z" fill="white"/>
</svg>
