<svg width="45" height="45" viewBox="0 0 45 45" fill="none" xmlns="http://www.w3.org/2000/svg">
<rect width="45" height="45" rx="10" fill="#2563EB"/>
<path d="M34.25 22C34.25 17.3925 34.1012 14.1719 33.9606 12.155C33.85 10.5613 32.66 9.31813 31.0687 9.17875C29.3256 9.025 26.6781 8.875 23 8.875C19.3219 8.875 16.675 9.025 14.9313 9.17875C13.34 9.31813 12.15 10.5613 12.0394 12.155C11.8987 14.1719 11.75 17.3925 11.75 22M34.25 22C34.25 26.6075 34.1012 29.8281 33.9606 31.845C33.85 33.4387 32.66 34.6819 31.0687 34.8212C29.325 34.975 26.6781 35.125 23 35.125C19.3219 35.125 16.6744 34.975 14.9313 34.8212C13.34 34.6819 12.15 33.4387 12.0394 31.845C11.8987 29.8281 11.75 26.6075 11.75 22M34.25 22H11.75" stroke="white" stroke-width="1.875" stroke-linecap="round" stroke-linejoin="round"/>
<path d="M33.9063 32.2612C31.3581 29.7175 29.6019 28.3175 28.5037 27.5606C27.6162 26.9481 26.5213 27.0481 25.6944 27.7419C24.73 28.55 23.1756 29.9487 20.8125 32.3125C19.919 33.2031 19.0404 34.1084 18.1769 35.0281M16.125 17.625H29.875M16.125 13.5625H23.625M19.25 27.625C19.25 28.1223 19.0525 28.5992 18.7008 28.9508C18.3492 29.3025 17.8723 29.5 17.375 29.5C16.8777 29.5 16.4008 29.3025 16.0492 28.9508C15.6975 28.5992 15.5 28.1223 15.5 27.625C15.5 27.1277 15.6975 26.6508 16.0492 26.2992C16.4008 25.9475 16.8777 25.75 17.375 25.75C17.8723 25.75 18.3492 25.9475 18.7008 26.2992C19.0525 26.6508 19.25 27.1277 19.25 27.625Z" stroke="white" stroke-width="1.875" stroke-linecap="round" stroke-linejoin="round"/>
</svg>
