<svg width="45" height="45" viewBox="0 0 45 45" fill="none" xmlns="http://www.w3.org/2000/svg">
<rect width="45" height="45" rx="10" fill="#F43F5E"/>
<path d="M12.1196 32.7524L20.0746 24.7974M30.0921 21.2599L27.7109 28.4037C27.6729 28.5182 27.6078 28.6218 27.5212 28.7058C27.4346 28.7898 27.329 28.8517 27.2134 28.8862L12.6159 33.2249C12.4844 33.264 12.3447 33.2662 12.212 33.2314C12.0793 33.1966 11.9587 33.126 11.8633 33.0274C11.7679 32.9288 11.7014 32.8059 11.671 32.6721C11.6406 32.5384 11.6475 32.3988 11.6909 32.2687L16.4309 18.0512C16.4648 17.9491 16.5204 17.8555 16.5937 17.7768C16.667 17.6981 16.7565 17.636 16.8559 17.5949L23.5896 14.8224C23.7265 14.7659 23.8771 14.7511 24.0224 14.7801C24.1676 14.809 24.3011 14.8803 24.4059 14.9849L29.9109 20.4924C30.0094 20.5909 30.0785 20.7149 30.1105 20.8504C30.1425 20.986 30.1362 21.1278 30.0921 21.2599Z" stroke="white" stroke-width="1.875" stroke-linecap="round" stroke-linejoin="round"/>
<path d="M30.2399 20.8196L33.7749 17.2834C34.2436 16.8146 34.5069 16.1788 34.5069 15.5159C34.5069 14.853 34.2436 14.2172 33.7749 13.7484L31.1249 11.0959C30.8928 10.8636 30.6171 10.6794 30.3137 10.5537C30.0104 10.428 29.6852 10.3633 29.3568 10.3633C29.0284 10.3633 28.7032 10.428 28.3999 10.5537C28.0965 10.6794 27.8208 10.8636 27.5887 11.0959L24.0537 14.6321M22.7262 22.1446C22.552 21.9705 22.3453 21.8325 22.1177 21.7383C21.8902 21.6441 21.6464 21.5957 21.4001 21.5957C21.1539 21.5958 20.91 21.6443 20.6825 21.7386C20.4551 21.8329 20.2484 21.9711 20.0743 22.1452C19.9002 22.3194 19.7621 22.5262 19.668 22.7537C19.5738 22.9812 19.5253 23.2251 19.5254 23.4713C19.5254 23.7176 19.574 23.9614 19.6683 24.1889C19.7626 24.4164 19.9008 24.623 20.0749 24.7971C20.4267 25.1487 20.9037 25.3461 21.401 25.346C21.8983 25.3459 22.3752 25.1482 22.7268 24.7965C23.0784 24.4448 23.2758 23.9678 23.2757 23.4704C23.2756 22.9731 23.0779 22.4962 22.7262 22.1446Z" stroke="white" stroke-width="1.875" stroke-linecap="round" stroke-linejoin="round"/>
</svg>
