<svg width="45" height="45" viewBox="0 0 45 45" fill="none" xmlns="http://www.w3.org/2000/svg">
<rect width="45" height="45" rx="10" fill="#7C3AED"/>
<path d="M18.625 33.875L23 29.5L27.375 33.875M23 9.5V12M19.25 22V24.5M23 19.5V24.5M26.75 17V24.5M35.5 12.75V28.75C35.5 28.8485 35.4806 28.946 35.4429 29.037C35.4052 29.128 35.35 29.2107 35.2803 29.2803C35.2107 29.35 35.128 29.4052 35.037 29.4429C34.946 29.4806 34.8485 29.5 34.75 29.5H11.25C11.0511 29.5 10.8603 29.421 10.7197 29.2803C10.579 29.1397 10.5 28.9489 10.5 28.75V12.75C10.5 12.5511 10.579 12.3603 10.7197 12.2197C10.8603 12.079 11.0511 12 11.25 12H34.75C34.9489 12 35.1397 12.079 35.2803 12.2197C35.421 12.3603 35.5 12.5511 35.5 12.75Z" stroke="white" stroke-width="1.875" stroke-linecap="round" stroke-linejoin="round"/>
</svg>
