<svg width="45" height="45" viewBox="0 0 45 45" fill="none" xmlns="http://www.w3.org/2000/svg">
<rect width="45" height="45" rx="10" fill="#38BDF8"/>
<g clip-path="url(#clip0_9468_17713)">
<path d="M34.25 9.5H11.75V34.5H34.25V9.5Z" stroke="white" stroke-width="1.875"/>
<path d="M11.75 31.93L18.4788 26.61L29.6788 34.5M23.3363 13.25H15.4988M30.5 17.43H15.5M34.25 21.4537H11.75M28.8188 24.6962C29.3674 24.6962 29.8936 24.9142 30.2816 25.3022C30.6695 25.6901 30.8875 26.2163 30.8875 26.765C30.8875 27.3137 30.6695 27.8399 30.2816 28.2278C29.8936 28.6158 29.3674 28.8337 28.8188 28.8337C28.2701 28.8337 27.7439 28.6158 27.3559 28.2278C26.968 27.8399 26.75 27.3137 26.75 26.765C26.75 26.2163 26.968 25.6901 27.3559 25.3022C27.7439 24.9142 28.2701 24.6962 28.8188 24.6962Z" stroke="white" stroke-width="1.875"/>
<rect x="28" y="36" width="57" height="57" rx="10" fill="#0D4992"/>
</g>
<defs>
<clipPath id="clip0_9468_17713">
<rect width="30" height="30" fill="white" transform="translate(8 7)"/>
</clipPath>
</defs>
</svg>
