<svg width="45" height="45" viewBox="0 0 45 45" fill="none" xmlns="http://www.w3.org/2000/svg">
<rect width="45" height="45" rx="10" fill="#22D3EE"/>
<path d="M16.75 17.625L19.25 15.125L16.75 12.625L14.25 15.125L16.75 17.625ZM13 24.5C12.3125 24.5 11.7242 24.2554 11.235 23.7663C10.7458 23.2771 10.5008 22.6883 10.5 22V10.75C10.5 10.0625 10.745 9.47417 11.235 8.985C11.725 8.49583 12.3133 8.25083 13 8.25H33C33.6875 8.25 34.2763 8.495 34.7663 8.985C35.2563 9.475 35.5008 10.0633 35.5 10.75V22C35.5 22.6875 35.2554 23.2762 34.7663 23.7663C34.2771 24.2563 33.6883 24.5008 33 24.5H28.9688C29.0938 24.0833 29.1771 23.6667 29.2188 23.25C29.2604 22.8333 29.2604 22.4167 29.2188 22H33V10.75H13V22H16.7812C16.7396 22.4167 16.7396 22.8333 16.7812 23.25C16.8229 23.6667 16.9062 24.0833 17.0312 24.5H13ZM28.625 15.75C29.1458 15.75 29.5887 15.5679 29.9538 15.2038C30.3188 14.8396 30.5008 14.3967 30.5 13.875C30.4992 13.3533 30.3171 12.9108 29.9538 12.5475C29.5904 12.1842 29.1475 12.0017 28.625 12C28.1025 11.9983 27.66 12.1808 27.2975 12.5475C26.935 12.9142 26.7525 13.3567 26.75 13.875C26.7475 14.3933 26.93 14.8363 27.2975 15.2038C27.665 15.5713 28.1075 15.7533 28.625 15.75ZM14.25 35.75V33.125C14.25 32.3958 14.4533 31.7188 14.86 31.0938C15.2667 30.4688 15.8029 30 16.4688 29.6875C17.4896 29.2083 18.5521 28.8492 19.6562 28.61C20.7604 28.3708 21.875 28.2508 23 28.25C24.125 28.2492 25.2396 28.3692 26.3438 28.61C27.4479 28.8508 28.5104 29.21 29.5312 29.6875C30.1979 30 30.7346 30.4688 31.1413 31.0938C31.5479 31.7188 31.7508 32.3958 31.75 33.125V35.75H14.25ZM16.75 33.25H29.25V33.125C29.25 32.875 29.1771 32.6458 29.0312 32.4375C28.8854 32.2292 28.6979 32.0729 28.4688 31.9688C27.5938 31.5729 26.6979 31.2708 25.7812 31.0625C24.8646 30.8542 23.9375 30.75 23 30.75C22.0625 30.75 21.1354 30.8542 20.2188 31.0625C19.3021 31.2708 18.4062 31.5729 17.5312 31.9688C17.3021 32.0729 17.1146 32.2292 16.9688 32.4375C16.8229 32.6458 16.75 32.875 16.75 33.125V33.25ZM19.9062 25.7188C19.0521 24.8646 18.625 23.8333 18.625 22.625C18.625 21.4167 19.0521 20.3854 19.9062 19.5312C20.7604 18.6771 21.7917 18.25 23 18.25C24.2083 18.25 25.2396 18.6771 26.0938 19.5312C26.9479 20.3854 27.375 21.4167 27.375 22.625C27.375 23.8333 26.9479 24.8646 26.0938 25.7188C25.2396 26.5729 24.2083 27 23 27C21.7917 27 20.7604 26.5729 19.9062 25.7188ZM24.3287 23.9537C24.6929 23.5887 24.875 23.1458 24.875 22.625C24.875 22.1042 24.6929 21.6617 24.3287 21.2975C23.9646 20.9333 23.5217 20.7508 23 20.75C22.4783 20.7492 22.0358 20.9317 21.6725 21.2975C21.3092 21.6633 21.1267 22.1058 21.125 22.625C21.1233 23.1442 21.3058 23.5871 21.6725 23.9537C22.0392 24.3204 22.4817 24.5025 23 24.5C23.5183 24.4975 23.9612 24.3154 24.3287 23.9537Z" fill="white"/>
</svg>
