<svg width="45" height="45" viewBox="0 0 45 45" fill="none" xmlns="http://www.w3.org/2000/svg">
<rect width="45" height="45" rx="10" fill="#22C55E"/>
<path d="M14.2497 33.25C13.1872 33.25 12.4322 32.7763 11.9847 31.8288C11.5372 30.8813 11.6463 30.0008 12.3122 29.1875L19.2497 20.75V13.25H17.9997C17.6455 13.25 17.3488 13.13 17.1097 12.89C16.8705 12.65 16.7505 12.3533 16.7497 12C16.7488 11.6467 16.8688 11.35 17.1097 11.11C17.3505 10.87 17.6472 10.75 17.9997 10.75H27.9997C28.3538 10.75 28.6509 10.87 28.8909 11.11C29.1309 11.35 29.2505 11.6467 29.2497 12C29.2488 12.3533 29.1288 12.6504 28.8897 12.8912C28.6505 13.1321 28.3538 13.2517 27.9997 13.25H26.7497V20.75L33.6871 29.1875C34.3538 30 34.4634 30.8804 34.0159 31.8288C33.5684 32.7771 32.813 33.2508 31.7497 33.25H14.2497ZM14.2497 30.75H31.7497L24.2497 21.625V13.25H21.7497V21.625L14.2497 30.75Z" fill="white"/>
</svg>
