<svg width="45" height="45" viewBox="0 0 45 45" fill="none" xmlns="http://www.w3.org/2000/svg">
<rect width="45" height="45" rx="10" fill="#60A5FA"/>
<path fill-rule="evenodd" clip-rule="evenodd" d="M19.2501 22H16.4151C16.1399 22.4766 15.7152 22.8491 15.2067 23.0597C14.6983 23.2703 14.1345 23.3073 13.603 23.1648C13.0714 23.0224 12.6016 22.7085 12.2666 22.2719C11.9316 21.8353 11.75 21.3003 11.75 20.75C11.75 20.1997 11.9316 19.6647 12.2666 19.2281C12.6016 18.7915 13.0714 18.4776 13.603 18.3352C14.1345 18.1927 14.6983 18.2297 15.2067 18.4403C15.7152 18.6509 16.1399 19.0234 16.4151 19.5H19.2501V13.25C19.2501 12.587 19.5135 11.9511 19.9823 11.4822C20.4511 11.0134 21.087 10.75 21.7501 10.75H31.7501C32.4131 10.75 33.049 11.0134 33.5178 11.4822C33.9867 11.9511 34.2501 12.587 34.2501 13.25V30.75C34.2501 31.413 33.9867 32.0489 33.5178 32.5178C33.049 32.9866 32.4131 33.25 31.7501 33.25H21.7501C21.087 33.25 20.4511 32.9866 19.9823 32.5178C19.5135 32.0489 19.2501 31.413 19.2501 30.75V22ZM21.7501 22V30.75H31.7501V13.25H21.7501V19.5H24.5851C24.8602 19.0234 25.285 18.6509 25.7934 18.4403C26.3019 18.2297 26.8656 18.1927 27.3972 18.3352C27.9288 18.4776 28.3985 18.7915 28.7335 19.2281C29.0685 19.6647 29.2501 20.1997 29.2501 20.75C29.2501 21.3003 29.0685 21.8353 28.7335 22.2719C28.3985 22.7085 27.9288 23.0224 27.3972 23.1648C26.8656 23.3073 26.3019 23.2703 25.7934 23.0597C25.285 22.8491 24.8602 22.4766 24.5851 22H21.7501Z" fill="white"/>
</svg>
