<svg width="45" height="45" viewBox="0 0 45 45" fill="none" xmlns="http://www.w3.org/2000/svg">
<rect width="45" height="45" rx="10" fill="#C084FC"/>
<g clip-path="url(#clip0_9468_17800)">
<path d="M16.4375 35.125H29.5625M26.75 35.125H19.25L20.1875 29.5H25.8125L26.75 35.125ZM12.6875 8.875H33.3125C33.3125 8.875 37.0625 8.875 37.0625 12.625V25.75C37.0625 25.75 37.0625 29.5 33.3125 29.5H12.6875C12.6875 29.5 8.9375 29.5 8.9375 25.75V12.625C8.9375 12.625 8.9375 8.875 12.6875 8.875Z" stroke="white" stroke-width="1.875" stroke-linecap="round" stroke-linejoin="round"/>
<path d="M18.3125 14.5H27.6875C27.6875 14.5 29.5625 14.5 29.5625 16.375V22C29.5625 22 29.5625 23.875 27.6875 23.875H18.3125C18.3125 23.875 16.4375 23.875 16.4375 22V16.375C16.4375 16.375 16.4375 14.5 18.3125 14.5Z" stroke="white" stroke-width="1.875" stroke-linecap="round" stroke-linejoin="round"/>
<path d="M16.9121 15.1289L22.9996 20.1252L29.0859 15.1302" stroke="white" stroke-width="1.875" stroke-linecap="round" stroke-linejoin="round"/>
</g>
<defs>
<clipPath id="clip0_9468_17800">
<rect width="30" height="30" fill="white" transform="translate(8 7)"/>
</clipPath>
</defs>
</svg>
