<svg width="45" height="45" viewBox="0 0 45 45" fill="none" xmlns="http://www.w3.org/2000/svg">
<rect width="45" height="45" rx="10" fill="#A855F7"/>
<path d="M34.25 24.5H33V10.75C33 10.4185 32.8683 10.1005 32.6339 9.86612C32.3995 9.6317 32.0815 9.5 31.75 9.5H14.25C13.9185 9.5 13.6005 9.6317 13.3661 9.86612C13.1317 10.1005 13 10.4185 13 10.75V24.5H11.75C11.4185 24.5 11.1005 24.6317 10.8661 24.8661C10.6317 25.1005 10.5 25.4185 10.5 25.75C10.5 26.0815 10.6317 26.3995 10.8661 26.6339C11.1005 26.8683 11.4185 27 11.75 27H21.75V28.4375L16.0625 32.1875C15.8292 32.3319 15.6498 32.5491 15.5522 32.8056C15.4546 33.0621 15.444 33.3435 15.5222 33.6066C15.6004 33.8696 15.763 34.0996 15.9849 34.2611C16.2068 34.4225 16.4757 34.5065 16.75 34.5C16.9958 34.5028 17.2362 34.4285 17.4375 34.2875L21.75 31.4375V33.25C21.75 33.5815 21.8817 33.8995 22.1161 34.1339C22.3505 34.3683 22.6685 34.5 23 34.5C23.3315 34.5 23.6495 34.3683 23.8839 34.1339C24.1183 33.8995 24.25 33.5815 24.25 33.25V31.4375L28.5625 34.2875C28.7638 34.4285 29.0042 34.5028 29.25 34.5C29.5171 34.4979 29.7764 34.4104 29.9901 34.2502C30.2038 34.09 30.3606 33.8656 30.4375 33.6098C30.5143 33.3541 30.5073 33.0804 30.4173 32.8289C30.3273 32.5775 30.1592 32.3614 29.9375 32.2125L24.25 28.4625V27H34.25C34.5815 27 34.8995 26.8683 35.1339 26.6339C35.3683 26.3995 35.5 26.0815 35.5 25.75C35.5 25.4185 35.3683 25.1005 35.1339 24.8661C34.8995 24.6317 34.5815 24.5 34.25 24.5ZM30.5 24.5H15.5V12H30.5V24.5ZM19.25 22C19.4559 21.9989 19.6583 21.947 19.8393 21.8489C20.0203 21.7508 20.1743 21.6095 20.2875 21.4375L21.95 18.9375L23.3625 20.3625C23.4937 20.4945 23.6526 20.5955 23.8278 20.6582C24.0029 20.7209 24.1899 20.7437 24.375 20.725C24.5593 20.7048 24.7368 20.6438 24.8946 20.5465C25.0524 20.4492 25.1866 20.3181 25.2875 20.1625L27.7875 16.4125C27.9347 16.138 27.9742 15.8185 27.8981 15.5165C27.8221 15.2144 27.6361 14.9517 27.3764 14.7796C27.1168 14.6076 26.8023 14.5387 26.4945 14.5864C26.1868 14.6341 25.9079 14.7949 25.7125 15.0375L24.05 17.5375L22.6375 16.1125C22.5063 15.9805 22.3474 15.8795 22.1722 15.8168C21.9971 15.7541 21.8101 15.7313 21.625 15.75C21.4407 15.7702 21.2632 15.8312 21.1054 15.9285C20.9476 16.0258 20.8134 16.1569 20.7125 16.3125L18.2125 20.0625C18.0316 20.3381 17.9669 20.674 18.0324 20.997C18.098 21.3201 18.2885 21.6042 18.5625 21.7875C18.7638 21.9285 19.0042 22.0028 19.25 22Z" fill="white"/>
</svg>
