<svg width="45" height="45" viewBox="0 0 45 45" fill="none" xmlns="http://www.w3.org/2000/svg">
<rect width="45" height="45" rx="10" fill="#FB923C"/>
<path d="M10.5 13.25C10.5 12.9185 10.6317 12.6005 10.8661 12.3661C11.1005 12.1317 11.4185 12 11.75 12H34.25C34.5815 12 34.8995 12.1317 35.1339 12.3661C35.3683 12.6005 35.5 12.9185 35.5 13.25V30.75C35.5 31.0815 35.3683 31.3995 35.1339 31.6339C34.8995 31.8683 34.5815 32 34.25 32H11.75C11.4185 32 11.1005 31.8683 10.8661 31.6339C10.6317 31.3995 10.5 31.0815 10.5 30.75V13.25Z" stroke="white" stroke-width="2.5" stroke-linejoin="round"/>
<path d="M30.5 12V32M15.5 12V32M31.75 18.25H35.5M31.75 25.75H35.5M10.5 18.25H14.25M10.5 17V19.5M13.625 12H17.375M13.625 32H17.375M28.625 12H32.375M28.625 32H32.375M10.5 25.75H14.25M10.5 24.5V27M35.5 24.5V27M35.5 17V19.5" stroke="white" stroke-width="2.5" stroke-linecap="round" stroke-linejoin="round"/>
<path d="M21.125 18.875L26.125 22L21.125 25.125V18.875Z" stroke="white" stroke-width="2.5" stroke-linejoin="round"/>
</svg>
