<svg width="45" height="45" viewBox="0 0 45 45" fill="none" xmlns="http://www.w3.org/2000/svg">
<rect width="45" height="45" rx="10" fill="#3B82F6"/>
<g clip-path="url(#clip0_9444_17176)">
<path d="M13 32.168H19.875M13 36.063H19.875M24.25 36.063V32.168H33V36.063M33 17.4805H13V28.1055H33V17.4805Z" stroke="white" stroke-width="2" stroke-linecap="round" stroke-linejoin="round"/>
<path d="M18.625 28.1053L23.57 22.6115C23.8983 22.2469 24.302 21.958 24.753 21.765C25.2041 21.5719 25.6918 21.4793 26.1822 21.4936C26.6726 21.5079 27.1541 21.6287 27.5932 21.8476C28.0323 22.0666 28.4185 22.3784 28.725 22.7615L33 28.1053" stroke="white" stroke-width="2" stroke-linecap="round" stroke-linejoin="round"/>
<path d="M17.375 22.4805C17.2092 22.4805 17.0503 22.4146 16.9331 22.2974C16.8158 22.1802 16.75 22.0212 16.75 21.8555C16.75 21.6897 16.8158 21.5307 16.9331 21.4135C17.0503 21.2963 17.2092 21.2305 17.375 21.2305M17.375 22.4805C17.5408 22.4805 17.6997 22.4146 17.8169 22.2974C17.9342 22.1802 18 22.0212 18 21.8555C18 21.6897 17.9342 21.5307 17.8169 21.4135C17.6997 21.2963 17.5408 21.2305 17.375 21.2305" stroke="white" stroke-width="2"/>
<path d="M8.9375 36.0625V10.4375C8.9375 9.77446 9.20089 9.13857 9.66973 8.66973C10.1386 8.20089 10.7745 7.9375 11.4375 7.9375H34.5625C35.2255 7.9375 35.8614 8.20089 36.3303 8.66973C36.7991 9.13857 37.0625 9.77446 37.0625 10.4375V36.0625M8.96125 13.205H37.0475M14.3525 7.9375V13.205M19.7687 7.9375V13.205" stroke="white" stroke-width="2" stroke-linecap="round" stroke-linejoin="round"/>
</g>
<defs>
<clipPath id="clip0_9444_17176">
<rect width="30" height="30" fill="white" transform="translate(8 7)"/>
</clipPath>
</defs>
</svg>
