<svg width="45" height="45" viewBox="0 0 45 45" fill="none" xmlns="http://www.w3.org/2000/svg">
<rect width="45" height="45" rx="10" fill="#8B5CF6"/>
<path d="M12.375 17H33.625M24.25 22H29.25M24.25 27H26.75M19.25 17V33.25M11.75 22C11.75 16.6962 11.75 14.045 13.3975 12.3975C15.045 10.75 17.6975 10.75 23 10.75C28.3025 10.75 30.955 10.75 32.6025 12.3975C34.25 14.045 34.25 16.6975 34.25 22C34.25 27.3025 34.25 29.955 32.6025 31.6025C30.955 33.25 28.3025 33.25 23 33.25C17.6975 33.25 15.045 33.25 13.3975 31.6025C11.75 29.955 11.75 27.3025 11.75 22Z" stroke="white" stroke-width="1.875" stroke-linecap="round" stroke-linejoin="round"/>
</svg>
