<svg width="16" height="16" viewBox="0 0 16 16" fill="none" xmlns="http://www.w3.org/2000/svg">
<path d="M6.70009 7.07142L1.98675 11.7848C1.86278 11.9086 1.76444 12.0556 1.69734 12.2175C1.63024 12.3794 1.5957 12.5529 1.5957 12.7281C1.5957 12.9033 1.63024 13.0768 1.69734 13.2387C1.76444 13.4005 1.86278 13.5476 1.98675 13.6714C2.23679 13.9214 2.57587 14.0618 2.92942 14.0618C3.28297 14.0618 3.62205 13.9214 3.87209 13.6714L8.58542 8.95676M11.4621 9.20009L14.0474 11.7854C14.2974 12.0355 14.4378 12.3745 14.4378 12.7281C14.4378 13.0816 14.2974 13.4207 14.0474 13.6708C13.7974 13.9207 13.4583 14.0611 13.1048 14.0611C12.7512 14.0611 12.4121 13.9207 12.1621 13.6708L8.02275 9.53209M4.48875 3.93609L3.07342 4.40676L1.66009 2.05009L2.60275 1.10742L4.96009 2.52142L4.48875 3.93609ZM4.48875 3.93609L6.37542 5.82276" stroke="white" stroke-width="1.3" stroke-linecap="round" stroke-linejoin="round"/>
<path d="M6.69848 7.07065C6.13582 5.63532 6.24582 3.75199 7.40582 2.59199C8.56582 1.43199 10.7058 1.17799 11.8838 1.88532L9.85715 3.91199L9.66849 5.98599L11.7425 5.79799L13.7692 3.77065C14.4772 4.94932 14.2225 7.08932 13.0625 8.24865C11.9025 9.40865 10.0198 9.51865 8.58448 8.95599" stroke="white" stroke-width="1.3" stroke-linecap="round" stroke-linejoin="round"/>
</svg>
