<svg width="16" height="16" viewBox="0 0 16 16" fill="none" xmlns="http://www.w3.org/2000/svg">
<path d="M11.332 6.66602C12.4366 6.66602 13.332 5.77059 13.332 4.66602C13.332 3.56145 12.4366 2.66602 11.332 2.66602C10.2275 2.66602 9.33203 3.56145 9.33203 4.66602C9.33203 5.77059 10.2275 6.66602 11.332 6.66602Z" stroke="white" stroke-width="1.3" stroke-linecap="round" stroke-linejoin="round"/>
<path d="M4.66602 13.332C5.77059 13.332 6.66602 12.4366 6.66602 11.332C6.66602 10.2275 5.77059 9.33203 4.66602 9.33203C3.56145 9.33203 2.66602 10.2275 2.66602 11.332C2.66602 12.4366 3.56145 13.332 4.66602 13.332Z" stroke="white" stroke-width="1.3" stroke-linecap="round" stroke-linejoin="round"/>
<path d="M9.33268 9.33268H13.3327V12.666C13.3327 12.8428 13.2624 13.0124 13.1374 13.1374C13.0124 13.2624 12.8428 13.3327 12.666 13.3327H9.99935C9.82254 13.3327 9.65297 13.2624 9.52794 13.1374C9.40292 13.0124 9.33268 12.8428 9.33268 12.666V9.33268ZM2.66602 2.66602H6.66602V5.99935C6.66602 6.17616 6.59578 6.34573 6.47075 6.47075C6.34573 6.59578 6.17616 6.66602 5.99935 6.66602H3.33268C3.15587 6.66602 2.9863 6.59578 2.86128 6.47075C2.73625 6.34573 2.66602 6.17616 2.66602 5.99935V2.66602Z" stroke="white" stroke-width="1.3" stroke-linecap="round" stroke-linejoin="round"/>
</svg>
