<svg width="18" height="18" viewBox="0 0 18 18" fill="none" xmlns="http://www.w3.org/2000/svg">
<path d="M8.99961 10.0496L5.32461 13.7246C5.18711 13.8621 5.01211 13.9309 4.79961 13.9309C4.58711 13.9309 4.41211 13.8621 4.27461 13.7246C4.13711 13.5871 4.06836 13.4121 4.06836 13.1996C4.06836 12.9871 4.13711 12.8121 4.27461 12.6746L7.94961 8.99961L4.27461 5.32461C4.13711 5.18711 4.06836 5.01211 4.06836 4.79961C4.06836 4.58711 4.13711 4.41211 4.27461 4.27461C4.41211 4.13711 4.58711 4.06836 4.79961 4.06836C5.01211 4.06836 5.18711 4.13711 5.32461 4.27461L8.99961 7.94961L12.6746 4.27461C12.8121 4.13711 12.9871 4.06836 13.1996 4.06836C13.4121 4.06836 13.5871 4.13711 13.7246 4.27461C13.8621 4.41211 13.9309 4.58711 13.9309 4.79961C13.9309 5.01211 13.8621 5.18711 13.7246 5.32461L10.0496 8.99961L13.7246 12.6746C13.8621 12.8121 13.9309 12.9871 13.9309 13.1996C13.9309 13.4121 13.8621 13.5871 13.7246 13.7246C13.5871 13.8621 13.4121 13.9309 13.1996 13.9309C12.9871 13.9309 12.8121 13.8621 12.6746 13.7246L8.99961 10.0496Z" fill="white" fill-opacity="0.75"/>
</svg>
