<svg width="20" height="20" viewBox="0 0 20 20" fill="none" xmlns="http://www.w3.org/2000/svg">
<path d="M18.3327 7.17398V13.959C18.3327 14.6508 18.0681 15.3163 17.593 15.8192C17.1179 16.322 16.4684 16.624 15.7777 16.6632L15.6243 16.6673H4.37435C3.68257 16.6674 3.01699 16.4027 2.51416 15.9276C2.01132 15.4525 1.70935 14.803 1.67018 14.1123L1.66602 13.959V7.17398L9.70935 11.3873C9.79883 11.4342 9.89834 11.4587 9.99935 11.4587C10.1004 11.4587 10.1999 11.4342 10.2893 11.3873L18.3327 7.17398ZM4.37435 3.33398H15.6243C16.2957 3.3339 16.9431 3.58315 17.441 4.03337C17.939 4.4836 18.252 5.10272 18.3193 5.77065L9.99935 10.129L1.67935 5.77065C1.74395 5.12924 2.03522 4.53192 2.50081 4.08604C2.96639 3.64016 3.57575 3.37497 4.21935 3.33815L4.37435 3.33398Z" fill="white"/>
</svg>
