<svg width="35" height="35" viewBox="0 0 35 35" fill="none" xmlns="http://www.w3.org/2000/svg">
<rect x="0.5" y="0.5" width="34" height="34" rx="17" stroke="#3B80D0"/>
<path d="M11.732 13.9542C11.6313 13.8999 11.5184 13.8727 11.4041 13.8752C11.2898 13.8776 11.1781 13.9097 11.0799 13.9683C10.9817 14.0269 10.9004 14.11 10.844 14.2094C10.7875 14.3088 10.7578 14.4212 10.7578 14.5355V22.9031C10.7578 23.0783 10.8274 23.2463 10.9513 23.3702C11.0752 23.4941 11.2432 23.5637 11.4184 23.5637C11.5936 23.5637 11.7616 23.4941 11.8855 23.3702C12.0094 23.2463 12.079 23.0783 12.079 22.9031V15.6418L16.83 18.1996C17.0256 18.3053 17.2616 18.3053 17.4572 18.1996L22.2082 15.6418V22.9031C22.2082 23.0783 22.2778 23.2463 22.4017 23.3702C22.5256 23.4941 22.6936 23.5637 22.8688 23.5637C23.044 23.5637 23.212 23.4941 23.3359 23.3702C23.4598 23.2463 23.5294 23.0783 23.5294 22.9031V14.5355C23.5294 14.4212 23.4997 14.3088 23.4432 14.2094C23.3868 14.11 23.3055 14.0269 23.2073 13.9683C23.1091 13.9097 22.9974 13.8776 22.8831 13.8752C22.7688 13.8727 22.6558 13.8999 22.5552 13.9542L17.1436 16.8678L11.732 13.9542Z" fill="#3B80D0"/>
<path fill-rule="evenodd" clip-rule="evenodd" d="M21.8203 11.2088C18.7085 10.9304 15.578 10.9304 12.4662 11.2088L11.1292 11.3277C10.4327 11.3899 9.77754 11.685 9.26948 12.1654C8.76142 12.6458 8.43012 13.2835 8.3291 13.9753C7.8903 16.9758 7.8903 20.0242 8.3291 23.0247C8.43034 23.7165 8.76185 24.3541 9.27007 24.8343C9.77829 25.3146 10.4336 25.6095 11.13 25.6715L12.4653 25.7913C15.5781 26.0696 18.7084 26.0696 21.8212 25.7913L23.1573 25.6715C23.8537 25.6093 24.5087 25.3143 25.0168 24.8341C25.5248 24.3538 25.8562 23.7164 25.9574 23.0247C26.3962 20.0242 26.3962 16.9758 25.9574 13.9753C25.8563 13.2833 25.5249 12.6456 25.0167 12.1651C24.5084 11.6847 23.8531 11.3897 23.1564 11.3277L21.8203 11.2088ZM12.5842 12.5247C15.6181 12.2528 18.6702 12.2528 21.704 12.5247L23.0402 12.6445C23.4407 12.68 23.8176 12.8496 24.1099 13.1258C24.4022 13.4019 24.5929 13.7686 24.6512 14.1665C25.0714 17.0402 25.0714 19.9598 24.6512 22.8335C24.5929 23.2314 24.4022 23.5981 24.1099 23.8742C23.8176 24.1504 23.4407 24.32 23.0402 24.3556L21.704 24.4753C18.6705 24.7466 15.6177 24.7466 12.5842 24.4753L11.2481 24.3556C10.8475 24.32 10.4706 24.1504 10.1783 23.8742C9.88601 23.5981 9.69533 23.2314 9.63709 22.8335C9.21682 19.9598 9.21682 17.0402 9.63709 14.1665C9.69533 13.7686 9.88601 13.4019 10.1783 13.1258C10.4706 12.8496 10.8475 12.68 11.2481 12.6445L12.5842 12.5247Z" fill="#3B80D0"/>
</svg>
