<svg width="21" height="30" viewBox="0 0 21 30" fill="none" xmlns="http://www.w3.org/2000/svg">
<g clip-path="url(#clip0_9779_13157)">
<path d="M15 10C14.2044 10 13.4413 10.3161 12.8787 10.8787C12.3161 11.4413 12 12.2044 12 13C12 13.7956 12.3161 14.5587 12.8787 15.1213C13.4413 15.6839 14.2044 16 15 16C15.7956 16 16.5587 15.6839 17.1213 15.1213C17.6839 14.5587 18 13.7956 18 13C18 12.2044 17.6839 11.4413 17.1213 10.8787C16.5587 10.3161 15.7956 10 15 10Z" fill="white"/>
<path fill-rule="evenodd" clip-rule="evenodd" d="M18 4H16V0H14V4H12C8.8174 4 5.76515 5.26428 3.51472 7.51472C1.26428 9.76515 0 12.8174 0 16C0 19.1826 1.26428 22.2348 3.51472 24.4853C5.76515 26.7357 8.8174 28 12 28H18C18.26 28 18.5193 27.9913 18.778 27.974L26.758 29.97C26.9254 30.0117 27.1008 30.0094 27.267 29.9632C27.4333 29.9171 27.5847 29.8287 27.7067 29.7067C27.8287 29.5847 27.9171 29.4333 27.9632 29.267C28.0094 29.1008 28.0117 28.9254 27.97 28.758L26.816 24.14C28.3982 22.4262 29.4467 20.2884 29.8331 17.9881C30.2196 15.6878 29.9272 13.3248 28.9919 11.188C28.0565 9.05123 26.5187 7.23337 24.5666 5.95678C22.6144 4.68019 20.3325 4.0002 18 4ZM10 13C10 11.6739 10.5268 10.4021 11.4645 9.46447C12.4021 8.52678 13.6739 8 15 8C16.3261 8 17.5979 8.52678 18.5355 9.46447C19.4732 10.4021 20 11.6739 20 13C20 14.3261 19.4732 15.5979 18.5355 16.5355C17.5979 17.4732 16.3261 18 15 18C13.6739 18 12.4021 17.4732 11.4645 16.5355C10.5268 15.5979 10 14.3261 10 13ZM15 24C12.9543 24.0035 10.969 23.307 9.374 22.026L10.626 20.466C11.824 21.426 13.344 22 15 22C16.656 22 18.176 21.426 19.374 20.466L20.626 22.026C19.031 23.307 17.0457 24.0035 15 24Z" fill="white"/>
</g>
<defs>
<clipPath id="clip0_9779_13157">
<rect width="30" height="30" fill="white"/>
</clipPath>
</defs>
</svg>
