<svg width="185" height="35" viewBox="0 0 185 35" fill="none" xmlns="http://www.w3.org/2000/svg">
<rect x="0.5" y="0.5" width="34" height="34" rx="17" stroke="white" stroke-opacity="0.3"/>
<path d="M11.732 12.9542C11.6313 12.8999 11.5184 12.8727 11.4041 12.8752C11.2898 12.8776 11.1781 12.9097 11.0799 12.9683C10.9817 13.0269 10.9004 13.11 10.844 13.2094C10.7875 13.3088 10.7578 13.4212 10.7578 13.5355V21.9031C10.7578 22.0783 10.8274 22.2463 10.9513 22.3702C11.0752 22.4941 11.2432 22.5637 11.4184 22.5637C11.5936 22.5637 11.7616 22.4941 11.8855 22.3702C12.0094 22.2463 12.079 22.0783 12.079 21.9031V14.6418L16.83 17.1996C17.0256 17.3053 17.2616 17.3053 17.4572 17.1996L22.2082 14.6418V21.9031C22.2082 22.0783 22.2778 22.2463 22.4017 22.3702C22.5256 22.4941 22.6936 22.5637 22.8688 22.5637C23.044 22.5637 23.212 22.4941 23.3359 22.3702C23.4598 22.2463 23.5294 22.0783 23.5294 21.9031V13.5355C23.5294 13.4212 23.4997 13.3088 23.4432 13.2094C23.3868 13.11 23.3055 13.0269 23.2073 12.9683C23.1091 12.9097 22.9974 12.8776 22.8831 12.8752C22.7688 12.8727 22.6558 12.8999 22.5552 12.9542L17.1436 15.8678L11.732 12.9542Z" fill="white"/>
<path fill-rule="evenodd" clip-rule="evenodd" d="M21.8203 10.2088C18.7085 9.93041 15.578 9.93041 12.4662 10.2088L11.1292 10.3277C10.4327 10.3899 9.77754 10.685 9.26948 11.1654C8.76142 11.6458 8.43012 12.2835 8.3291 12.9753C7.8903 15.9758 7.8903 19.0242 8.3291 22.0247C8.43034 22.7165 8.76185 23.3541 9.27007 23.8343C9.77829 24.3146 10.4336 24.6095 11.13 24.6715L12.4653 24.7913C15.5781 25.0696 18.7084 25.0696 21.8212 24.7913L23.1573 24.6715C23.8537 24.6093 24.5087 24.3143 25.0168 23.8341C25.5248 23.3538 25.8562 22.7164 25.9574 22.0247C26.3962 19.0242 26.3962 15.9758 25.9574 12.9753C25.8563 12.2833 25.5249 11.6456 25.0167 11.1651C24.5084 10.6847 23.8531 10.3897 23.1564 10.3277L21.8203 10.2088ZM12.5842 11.5247C15.6181 11.2528 18.6702 11.2528 21.704 11.5247L23.0402 11.6445C23.4407 11.68 23.8176 11.8496 24.1099 12.1258C24.4022 12.4019 24.5929 12.7686 24.6512 13.1665C25.0714 16.0402 25.0714 18.9598 24.6512 21.8335C24.5929 22.2314 24.4022 22.5981 24.1099 22.8742C23.8176 23.1504 23.4407 23.32 23.0402 23.3556L21.704 23.4753C18.6705 23.7466 15.6177 23.7466 12.5842 23.4753L11.2481 23.3556C10.8475 23.32 10.4706 23.1504 10.1783 22.8742C9.88601 22.5981 9.69533 22.2314 9.63709 21.8335C9.21682 18.9598 9.21682 16.0402 9.63709 13.1665C9.69533 12.7686 9.88601 12.4019 10.1783 12.1258C10.4706 11.8496 10.8475 11.68 11.2481 11.6445L12.5842 11.5247Z" fill="white"/>
<rect x="50.5" y="0.5" width="34" height="34" rx="17" stroke="white" stroke-opacity="0.3"/>
<path d="M71.666 12.8135C71.9537 12.8135 72.1865 13.0463 72.1865 13.334C72.1865 13.6216 71.9537 13.8545 71.666 13.8545C71.3784 13.8545 71.1455 13.6216 71.1455 13.334C71.1455 13.0463 71.3784 12.8135 71.666 12.8135Z" fill="white" stroke="white" stroke-width="1.45833"/>
<path d="M70.8333 10C73.1333 10 75 11.8667 75 14.1667V20.8333C75 23.1333 73.1333 25 70.8333 25H64.1667C61.8667 25 60 23.1333 60 20.8333V14.1667C60 11.8667 61.8667 10 64.1667 10H67.5H70.8333Z" stroke="white" stroke-width="1.5" stroke-linecap="round" stroke-linejoin="round"/>
<path d="M67.4993 14.166C69.341 14.166 70.8327 15.6577 70.8327 17.4993C70.8327 19.341 69.341 20.8327 67.4993 20.8327C65.6577 20.8327 64.166 19.341 64.166 17.4993C64.166 15.6577 65.6577 14.166 67.4993 14.166Z" stroke="white" stroke-width="2" stroke-linecap="round" stroke-linejoin="round"/>
<rect x="100.5" y="0.5" width="34" height="34" rx="17" stroke="white" stroke-opacity="0.3"/>
<path d="M117.53 10C113.415 10 110.06 13.3375 110.06 17.4325C110.06 18.745 110.407 20.02 111.055 21.145L110 25L113.957 23.965C115.05 24.5575 116.279 24.8725 117.53 24.8725C121.646 24.8725 125 21.535 125 17.44C125 15.4525 124.224 13.585 122.814 12.1825C122.123 11.4881 121.3 10.9375 120.393 10.5628C119.485 10.1881 118.512 9.9968 117.53 10ZM117.538 11.2525C119.196 11.2525 120.749 11.8975 121.925 13.0675C122.502 13.6417 122.959 14.3234 123.271 15.0737C123.582 15.824 123.742 16.6281 123.741 17.44C123.741 20.845 120.952 23.6125 117.53 23.6125C116.415 23.6125 115.322 23.32 114.372 22.75L114.146 22.6225L111.794 23.2375L112.42 20.9575L112.269 20.7175C111.647 19.7338 111.317 18.5948 111.319 17.4325C111.327 14.0275 114.108 11.2525 117.538 11.2525ZM114.884 13.9975C114.764 13.9975 114.56 14.0425 114.387 14.23C114.221 14.4175 113.731 14.875 113.731 15.7825C113.731 16.6975 114.402 17.575 114.485 17.7025C114.59 17.83 115.812 19.705 117.688 20.5C118.133 20.7025 118.48 20.815 118.751 20.8975C119.196 21.04 119.603 21.0175 119.927 20.9725C120.289 20.92 121.028 20.5225 121.186 20.0875C121.344 19.6525 121.344 19.285 121.299 19.2025C121.246 19.1275 121.126 19.0825 120.937 19C120.749 18.895 119.829 18.445 119.663 18.385C119.49 18.325 119.384 18.295 119.241 18.475C119.121 18.6625 118.759 19.0825 118.653 19.2025C118.54 19.33 118.435 19.345 118.254 19.255C118.058 19.1575 117.455 18.9625 116.746 18.3325C116.188 17.8375 115.819 17.23 115.706 17.0425C115.616 16.8625 115.698 16.75 115.789 16.6675C115.872 16.585 115.992 16.45 116.068 16.3375C116.166 16.2325 116.196 16.15 116.256 16.03C116.317 15.9025 116.286 15.7975 116.241 15.7075C116.196 15.625 115.819 14.695 115.661 14.3275C115.51 13.9675 115.359 14.0125 115.239 14.005C115.133 14.005 115.013 13.9975 114.884 13.9975Z" fill="white"/>
<rect x="150.5" y="0.5" width="34" height="34" rx="17" stroke="white" stroke-opacity="0.3"/>
<path d="M163.358 11.6674C163.358 12.1094 163.18 12.5332 162.865 12.8456C162.55 13.158 162.123 13.3334 161.678 13.3331C161.233 13.3329 160.806 13.1571 160.491 12.8444C160.176 12.5317 160 12.1077 160 11.6657C160 11.2237 160.177 10.7999 160.492 10.4875C160.807 10.1752 161.234 9.99978 161.68 10C162.125 10.0002 162.552 10.176 162.867 10.4887C163.181 10.8014 163.358 11.2254 163.358 11.6674ZM163.408 14.5672H160.05V25H163.408V14.5672ZM168.714 14.5672H165.373V25H168.68V19.5253C168.68 16.4755 172.684 16.1922 172.684 19.5253V25H176V18.392C176 13.2507 170.073 13.4423 168.68 15.9672L168.714 14.5672Z" stroke="white"/>
</svg>
