<svg width="90" height="80" viewBox="0 0 90 80" fill="none" xmlns="http://www.w3.org/2000/svg">
<foreignObject x="-43.7827" y="-43.7827" width="176.694" height="167.311"><div xmlns="http://www.w3.org/1999/xhtml" style="backdrop-filter:blur(21.89px);clip-path:url(#bgblur_0_9754_16804_clip_path);height:100%;width:100%"></div></foreignObject><g data-figma-bg-blur-radius="43.7827">
<rect x="0.78125" y="0.78125" width="87.5654" height="78.1834" rx="15.6367" fill="url(#paint0_linear_9754_16804)" fill-opacity="0.3"/>
<rect x="0.390333" y="0.390333" width="88.3472" height="78.9652" rx="16.0276" stroke="#3B80D0" stroke-opacity="0.2" stroke-width="0.781834"/>
<g clip-path="url(#clip1_9754_16804)">
<mask id="mask0_9754_16804" style="mask-type:luminance" maskUnits="userSpaceOnUse" x="16" y="12" width="53" height="53">
<path fill-rule="evenodd" clip-rule="evenodd" d="M32.2523 12.7773C40.7697 12.7773 47.6745 19.685 47.6745 28.2061V34.0696H52.8071C61.3241 34.0696 68.2294 40.9773 68.2294 49.4983C68.2294 58.0186 61.3241 64.9263 52.8071 64.9263H16.8301V28.2061C16.8301 19.6846 23.7349 12.7773 32.2523 12.7773Z" fill="url(#paint1_linear_9754_16804)"/>
</mask>
<g mask="url(#mask0_9754_16804)">
<g filter="url(#filter1_f_9754_16804)">
<path d="M40.8883 78.4247C61.0551 78.4247 77.4035 62.1126 77.4035 41.9907C77.4035 21.8687 61.0551 5.55664 40.8883 5.55664C20.7215 5.55664 4.37305 21.8687 4.37305 41.9907C4.37305 62.1126 20.7215 78.4247 40.8883 78.4247Z" fill="#4B73FF"/>
</g>
</g>
<mask id="mask1_9754_16804" style="mask-type:luminance" maskUnits="userSpaceOnUse" x="16" y="12" width="53" height="53">
<path fill-rule="evenodd" clip-rule="evenodd" d="M32.2523 12.7773C40.7697 12.7773 47.6745 19.685 47.6745 28.2061V34.0696H52.8071C61.3241 34.0696 68.2294 40.9773 68.2294 49.4983C68.2294 58.0186 61.3241 64.9263 52.8071 64.9263H16.8301V28.2061C16.8301 19.6846 23.7349 12.7773 32.2523 12.7773Z" fill="url(#paint2_linear_9754_16804)"/>
</mask>
<g mask="url(#mask1_9754_16804)">
<g filter="url(#filter2_f_9754_16804)">
<path d="M44.8986 58.4325C70.7266 58.4325 91.6644 42.1204 91.6644 21.9985C91.6644 1.87652 70.7266 -14.4355 44.8986 -14.4355C19.0706 -14.4355 -1.86719 1.87652 -1.86719 21.9985C-1.86719 42.1204 19.0706 58.4325 44.8986 58.4325Z" fill="#FF66F4"/>
</g>
</g>
<mask id="mask2_9754_16804" style="mask-type:luminance" maskUnits="userSpaceOnUse" x="16" y="12" width="53" height="53">
<path fill-rule="evenodd" clip-rule="evenodd" d="M32.2523 12.7773C40.7697 12.7773 47.6745 19.685 47.6745 28.2061V34.0696H52.8071C61.3241 34.0696 68.2294 40.9773 68.2294 49.4983C68.2294 58.0186 61.3241 64.9263 52.8071 64.9263H16.8301V28.2061C16.8301 19.6846 23.7349 12.7773 32.2523 12.7773Z" fill="url(#paint3_linear_9754_16804)"/>
</mask>
<g mask="url(#mask2_9754_16804)">
<g filter="url(#filter3_f_9754_16804)">
<path d="M52.523 47.1383C72.6899 47.1383 89.0383 32.8128 89.0383 15.1414C89.0383 -2.52998 72.6899 -16.8555 52.523 -16.8555C32.3562 -16.8555 16.0078 -2.52998 16.0078 15.1414C16.0078 32.8128 32.3562 47.1383 52.523 47.1383Z" fill="#FF0105"/>
</g>
</g>
<mask id="mask3_9754_16804" style="mask-type:luminance" maskUnits="userSpaceOnUse" x="16" y="12" width="53" height="53">
<path fill-rule="evenodd" clip-rule="evenodd" d="M32.2523 12.7773C40.7697 12.7773 47.6745 19.685 47.6745 28.2061V34.0696H52.8071C61.3241 34.0696 68.2294 40.9773 68.2294 49.4983C68.2294 58.0186 61.3241 64.9263 52.8071 64.9263H16.8301V28.2061C16.8301 19.6846 23.7349 12.7773 32.2523 12.7773Z" fill="url(#paint4_linear_9754_16804)"/>
</mask>
<g mask="url(#mask3_9754_16804)">
<g filter="url(#filter4_f_9754_16804)">
<path d="M45.5478 43.8991C57.676 43.8991 67.5078 34.089 67.5078 21.9876C67.5078 9.88627 57.676 0.0761719 45.5478 0.0761719C33.4197 0.0761719 23.5879 9.88627 23.5879 21.9876C23.5879 34.089 33.4197 43.8991 45.5478 43.8991Z" fill="#FE7B02"/>
</g>
</g>
</g>
</g>
<defs>
<clipPath id="bgblur_0_9754_16804_clip_path" transform="translate(43.7827 43.7827)"><rect x="0.78125" y="0.78125" width="87.5654" height="78.1834" rx="15.6367"/>
</clipPath><filter id="filter1_f_9754_16804" x="-0.400558" y="0.783035" width="82.5785" height="82.4144" filterUnits="userSpaceOnUse" color-interpolation-filters="sRGB">
<feFlood flood-opacity="0" result="BackgroundImageFix"/>
<feBlend mode="normal" in="SourceGraphic" in2="BackgroundImageFix" result="shape"/>
<feGaussianBlur stdDeviation="2.3868" result="effect1_foregroundBlur_9754_16804"/>
</filter>
<filter id="filter2_f_9754_16804" x="-6.64079" y="-19.2092" width="103.078" height="82.4144" filterUnits="userSpaceOnUse" color-interpolation-filters="sRGB">
<feFlood flood-opacity="0" result="BackgroundImageFix"/>
<feBlend mode="normal" in="SourceGraphic" in2="BackgroundImageFix" result="shape"/>
<feGaussianBlur stdDeviation="2.3868" result="effect1_foregroundBlur_9754_16804"/>
</filter>
<filter id="filter3_f_9754_16804" x="11.2342" y="-21.6291" width="82.5785" height="73.5414" filterUnits="userSpaceOnUse" color-interpolation-filters="sRGB">
<feFlood flood-opacity="0" result="BackgroundImageFix"/>
<feBlend mode="normal" in="SourceGraphic" in2="BackgroundImageFix" result="shape"/>
<feGaussianBlur stdDeviation="2.3868" result="effect1_foregroundBlur_9754_16804"/>
</filter>
<filter id="filter4_f_9754_16804" x="18.8143" y="-4.69743" width="53.4671" height="53.3695" filterUnits="userSpaceOnUse" color-interpolation-filters="sRGB">
<feFlood flood-opacity="0" result="BackgroundImageFix"/>
<feBlend mode="normal" in="SourceGraphic" in2="BackgroundImageFix" result="shape"/>
<feGaussianBlur stdDeviation="2.3868" result="effect1_foregroundBlur_9754_16804"/>
</filter>
<linearGradient id="paint0_linear_9754_16804" x1="0.456667" y1="0.781249" x2="191.28" y2="64.7607" gradientUnits="userSpaceOnUse">
<stop stop-color="white" stop-opacity="0.75"/>
<stop stop-color="white" stop-opacity="0.375"/>
<stop offset="1" stop-color="white" stop-opacity="0"/>
</linearGradient>
<linearGradient id="paint1_linear_9754_16804" x1="34.1268" y1="21.9416" x2="49.7248" y2="64.9293" gradientUnits="userSpaceOnUse">
<stop offset="0.025" stop-color="#FF8E63"/>
<stop offset="0.56" stop-color="#FF7EB0"/>
<stop offset="0.95" stop-color="#4B73FF"/>
</linearGradient>
<linearGradient id="paint2_linear_9754_16804" x1="34.1268" y1="21.9416" x2="49.7248" y2="64.9293" gradientUnits="userSpaceOnUse">
<stop offset="0.025" stop-color="#FF8E63"/>
<stop offset="0.56" stop-color="#FF7EB0"/>
<stop offset="0.95" stop-color="#4B73FF"/>
</linearGradient>
<linearGradient id="paint3_linear_9754_16804" x1="34.1268" y1="21.9416" x2="49.7248" y2="64.9293" gradientUnits="userSpaceOnUse">
<stop offset="0.025" stop-color="#FF8E63"/>
<stop offset="0.56" stop-color="#FF7EB0"/>
<stop offset="0.95" stop-color="#4B73FF"/>
</linearGradient>
<linearGradient id="paint4_linear_9754_16804" x1="34.1268" y1="21.9416" x2="49.7248" y2="64.9293" gradientUnits="userSpaceOnUse">
<stop offset="0.025" stop-color="#FF8E63"/>
<stop offset="0.56" stop-color="#FF7EB0"/>
<stop offset="0.95" stop-color="#4B73FF"/>
</linearGradient>
<clipPath id="clip1_9754_16804">
<rect width="54.73" height="54.73" fill="white" transform="translate(16.8301 12.7773)"/>
</clipPath>
</defs>
</svg>
