<svg width="34" height="34" viewBox="0 0 34 34" fill="none" xmlns="http://www.w3.org/2000/svg">
<rect x="1.95898" y="2" width="30" height="30" rx="15" fill="white"/>
<path fill-rule="evenodd" clip-rule="evenodd" d="M21.4127 12.523C21.6004 12.7104 21.7059 12.9647 21.7061 13.2299C21.7063 13.4951 21.6011 13.7495 21.4137 13.9372L12.5812 22.7824C12.3938 22.9701 12.1395 23.0756 11.8743 23.0758C11.6091 23.076 11.3547 22.9708 11.167 22.7834C10.9793 22.596 10.8738 22.3417 10.8736 22.0765C10.8734 21.8113 10.9786 21.5569 11.166 21.3692L19.9985 12.524C20.1859 12.3363 20.4402 12.2308 20.7054 12.2306C20.9706 12.2304 21.225 12.3356 21.4127 12.523Z" fill="#3B80D0"/>
<path fill-rule="evenodd" clip-rule="evenodd" d="M22.4721 11.4607C22.6597 11.6481 22.7652 11.9024 22.7653 12.1676L22.7699 18.5315C22.7702 18.7968 22.6651 19.0513 22.4777 19.2391C22.2903 19.4269 22.036 19.5325 21.7708 19.5328C21.5055 19.5331 21.251 19.428 21.0632 19.2406C20.8754 19.0532 20.7698 18.7989 20.7695 18.5337L20.7664 13.1688L15.4023 13.1727C15.137 13.1728 14.8825 13.0675 14.6949 12.88C14.5073 12.6925 14.4018 12.4381 14.4017 12.1728C14.4016 11.9076 14.5069 11.6531 14.6944 11.4655C14.8819 11.2778 15.1363 11.1724 15.4015 11.1723L21.7655 11.1677C22.0305 11.1679 22.2847 11.2732 22.4721 11.4607Z" fill="#3B80D0"/>
</svg>
