<svg width="16" height="16" viewBox="0 0 16 16" fill="none" xmlns="http://www.w3.org/2000/svg">
<g clip-path="url(#clip0_5016_3464)">
<path d="M13.4374 12.4631L13.0716 12.091L12.8573 12.3001L12.9305 12.5896L13.4374 12.4631ZM14.1106 15.1577L13.9841 15.6647C14.0716 15.6865 14.1632 15.6852 14.2501 15.6611C14.337 15.637 14.4162 15.5908 14.4799 15.5271C14.5437 15.4633 14.5898 15.3842 14.6139 15.2973C14.6381 15.2104 14.6393 15.1188 14.6175 15.0313L14.1106 15.1577ZM9.92965 14.1125L9.55964 13.7425L8.90742 14.3958L9.80318 14.6194L9.92965 14.1125ZM9.95578 14.0864L10.3247 14.4564C10.401 14.3804 10.452 14.2827 10.4706 14.1767C10.4893 14.0707 10.4747 13.9615 10.429 13.864C10.3832 13.7666 10.3085 13.6857 10.215 13.6323C10.1215 13.5789 10.0138 13.5557 9.90666 13.5659L9.95578 14.0864ZM7.31658 0.00195312V2.61502H8.36181V0.00195312H7.31658ZM9.40704 2.09241H6.27136V3.13763H9.40704V2.09241ZM15.6784 8.36376C15.6784 6.7005 15.0177 5.10535 13.8416 3.92924C12.6654 2.75314 11.0703 2.09241 9.40704 2.09241V3.13763C10.0933 3.13763 10.7729 3.27281 11.407 3.53545C12.0411 3.79808 12.6172 4.18304 13.1025 4.66833C13.5878 5.15362 13.9727 5.72975 14.2354 6.36381C14.498 6.99787 14.6332 7.67746 14.6332 8.36376H15.6784ZM13.8033 12.8363C14.3981 12.2532 14.8705 11.5571 15.1925 10.7888C15.5145 10.0206 15.6797 9.19676 15.6784 8.36376H14.6332C14.6345 9.05802 14.4969 9.74448 14.2286 10.3848C13.9602 11.0251 13.5675 11.6052 13.0716 12.091L13.8033 12.8363ZM14.6185 15.0313L13.9433 12.3356L12.9295 12.5886L13.6026 15.2832L14.6185 15.0313ZM9.80318 14.6194L13.9841 15.6647L14.237 14.6508L10.0561 13.6056L9.80318 14.6194ZM9.58577 13.7174L9.55964 13.7425L10.2997 14.4815L10.3247 14.4564L9.58577 13.7174ZM9.40704 14.6351C9.60911 14.6351 9.8084 14.6257 10.0049 14.6069L9.90666 13.5659C9.74059 13.5818 9.57386 13.5899 9.40704 13.5899V14.6351ZM6.27136 14.6351H9.40704V13.5899H6.27136V14.6351ZM0 8.36376C0 10.027 0.66073 11.6222 1.83684 12.7983C3.01295 13.9744 4.60809 14.6351 6.27136 14.6351V13.5899C5.58505 13.5899 4.90547 13.4547 4.2714 13.1921C3.63734 12.9294 3.06122 12.5445 2.57592 12.0592C1.59584 11.0791 1.04523 9.74982 1.04523 8.36376H0ZM6.27136 2.09241C4.60809 2.09241 3.01295 2.75314 1.83684 3.92924C0.66073 5.10535 0 6.7005 0 8.36376H1.04523C1.04523 6.97771 1.59584 5.64842 2.57592 4.66833C3.55601 3.68824 4.8853 3.13763 6.27136 3.13763V2.09241ZM7.8392 8.36376C7.42338 8.36376 7.02459 8.19858 6.73057 7.90455C6.43654 7.61053 6.27136 7.21174 6.27136 6.79592H5.22613C5.22613 7.48895 5.50144 8.15359 5.99148 8.64364C6.48153 9.13369 7.14617 9.40899 7.8392 9.40899V8.36376ZM9.40704 6.79592C9.40704 7.21174 9.24185 7.61053 8.94783 7.90455C8.6538 8.19858 8.25501 8.36376 7.8392 8.36376V9.40899C8.53223 9.40899 9.19687 9.13369 9.68691 8.64364C10.177 8.15359 10.4523 7.48895 10.4523 6.79592H9.40704ZM7.8392 5.22808C8.25501 5.22808 8.6538 5.39327 8.94783 5.68729C9.24185 5.98132 9.40704 6.38011 9.40704 6.79592H10.4523C10.4523 6.1029 10.177 5.43825 9.68691 4.94821C9.19687 4.45816 8.53223 4.18286 7.8392 4.18286V5.22808ZM7.8392 4.18286C7.14617 4.18286 6.48153 4.45816 5.99148 4.94821C5.50144 5.43825 5.22613 6.1029 5.22613 6.79592H6.27136C6.27136 6.38011 6.43654 5.98132 6.73057 5.68729C7.02459 5.39327 7.42338 5.22808 7.8392 5.22808V4.18286ZM7.8392 12.5447C8.95132 12.5447 9.97355 12.1579 10.7794 11.513L10.1251 10.6978C9.49797 11.1995 8.70465 11.4994 7.8392 11.4994V12.5447ZM4.89898 11.513C5.7038 12.1579 6.72812 12.5447 7.8392 12.5447V11.4994C7.00801 11.5012 6.20128 11.2183 5.55329 10.6978L4.89898 11.513Z" fill="white"/>
</g>
<defs>
<clipPath id="clip0_5016_3464">
<rect width="15.6784" height="15.6784" fill="white"/>
</clipPath>
</defs>
</svg>
