<svg width="16" height="16" viewBox="0 0 16 16" fill="none" xmlns="http://www.w3.org/2000/svg">
<g clip-path="url(#clip0_9782_32316)">
<path d="M7.83932 5.22656C7.42351 5.22656 7.02472 5.39174 6.73069 5.68577C6.43667 5.9798 6.27148 6.37859 6.27148 6.7944C6.27148 7.21022 6.43667 7.60901 6.73069 7.90303C7.02472 8.19706 7.42351 8.36224 7.83932 8.36224C8.25514 8.36224 8.65393 8.19706 8.94795 7.90303C9.24198 7.60901 9.40716 7.21022 9.40716 6.7944C9.40716 6.37859 9.24198 5.9798 8.94795 5.68577C8.65393 5.39174 8.25514 5.22656 7.83932 5.22656Z" fill="white"/>
<path fill-rule="evenodd" clip-rule="evenodd" d="M9.40704 2.09045H8.36181V0H7.31658V2.09045H6.27136C4.60809 2.09045 3.01295 2.75118 1.83684 3.92729C0.66073 5.1034 0 6.69854 0 8.36181C0 10.0251 0.66073 11.6202 1.83684 12.7963C3.01295 13.9724 4.60809 14.6332 6.27136 14.6332H9.40704C9.54292 14.6332 9.67845 14.6286 9.81363 14.6196L13.9841 15.6627C14.0716 15.6845 14.1632 15.6833 14.2501 15.6592C14.337 15.6351 14.4162 15.5889 14.4799 15.5251C14.5437 15.4614 14.5898 15.3822 14.6139 15.2953C14.6381 15.2084 14.6393 15.1168 14.6175 15.0293L14.0144 12.6159C14.8413 11.7202 15.3892 10.603 15.5912 9.40081C15.7931 8.19866 15.6404 6.9637 15.1515 5.84699C14.6627 4.73029 13.859 3.78026 12.8388 3.11309C11.8186 2.44593 10.626 2.09056 9.40704 2.09045ZM5.22613 6.79397C5.22613 6.10094 5.50144 5.4363 5.99148 4.94625C6.48153 4.45621 7.14617 4.18091 7.8392 4.18091C8.53223 4.18091 9.19687 4.45621 9.68691 4.94625C10.177 5.4363 10.4523 6.10094 10.4523 6.79397C10.4523 7.487 10.177 8.15164 9.68691 8.64169C9.19687 9.13173 8.53223 9.40704 7.8392 9.40704C7.14617 9.40704 6.48153 9.13173 5.99148 8.64169C5.50144 8.15164 5.22613 7.487 5.22613 6.79397ZM7.8392 12.5427C6.77009 12.5446 5.73254 12.1805 4.89898 11.5111L5.55329 10.6958C6.17938 11.1975 6.97375 11.4975 7.8392 11.4975C8.70464 11.4975 9.49902 11.1975 10.1251 10.6958L10.7794 11.5111C9.94585 12.1805 8.9083 12.5446 7.8392 12.5427Z" fill="white"/>
</g>
<defs>
<clipPath id="clip0_9782_32316">
<rect width="15.6784" height="15.6784" fill="white"/>
</clipPath>
</defs>
</svg>
