<svg width="35" height="35" viewBox="0 0 35 35" fill="none" xmlns="http://www.w3.org/2000/svg">
<rect x="0.5" y="0.5" width="34" height="34" rx="17" stroke="white" stroke-opacity="0.3"/>
<path d="M21.6641 12.8135C21.9517 12.8135 22.1846 13.0463 22.1846 13.334C22.1846 13.6216 21.9517 13.8545 21.6641 13.8545C21.3764 13.8545 21.1436 13.6216 21.1436 13.334C21.1436 13.0463 21.3764 12.8135 21.6641 12.8135Z" fill="white" stroke="white" stroke-width="1.45833"/>
<path d="M20.8333 10C23.1333 10 25 11.8667 25 14.1667V20.8333C25 23.1333 23.1333 25 20.8333 25H14.1667C11.8667 25 10 23.1333 10 20.8333V14.1667C10 11.8667 11.8667 10 14.1667 10H17.5H20.8333Z" stroke="white" stroke-width="1.5" stroke-linecap="round" stroke-linejoin="round"/>
<path d="M17.4974 14.166C19.3391 14.166 20.8307 15.6577 20.8307 17.4993C20.8307 19.341 19.3391 20.8327 17.4974 20.8327C15.6557 20.8327 14.1641 19.341 14.1641 17.4993C14.1641 15.6577 15.6557 14.166 17.4974 14.166Z" stroke="white" stroke-width="2" stroke-linecap="round" stroke-linejoin="round"/>
</svg>
