<svg width="20" height="20" viewBox="0 0 20 20" fill="none" xmlns="http://www.w3.org/2000/svg">
<path d="M18.3346 7.17398V13.959C18.3347 14.6508 18.07 15.3163 17.5949 15.8192C17.1198 16.322 16.4703 16.624 15.7796 16.6632L15.6263 16.6673H4.3763C3.68452 16.6674 3.01894 16.4027 2.51611 15.9276C2.01327 15.4525 1.7113 14.803 1.67214 14.1123L1.66797 13.959V7.17398L9.7113 11.3873C9.80078 11.4342 9.90029 11.4587 10.0013 11.4587C10.1023 11.4587 10.2018 11.4342 10.2913 11.3873L18.3346 7.17398ZM4.3763 3.33398H15.6263C16.2976 3.3339 16.945 3.58315 17.443 4.03337C17.941 4.4836 18.254 5.10272 18.3213 5.77065L10.0013 10.129L1.6813 5.77065C1.7459 5.12924 2.03718 4.53192 2.50276 4.08604C2.96834 3.64016 3.5777 3.37497 4.2213 3.33815L4.3763 3.33398Z" fill="white"/>
</svg>
