<svg width="132" height="18" viewBox="0 0 132 18" fill="none" xmlns="http://www.w3.org/2000/svg">
<path d="M123 10.0496L119.325 13.7246C119.187 13.8621 119.012 13.9309 118.8 13.9309C118.587 13.9309 118.412 13.8621 118.275 13.7246C118.137 13.5871 118.068 13.4121 118.068 13.1996C118.068 12.9871 118.137 12.8121 118.275 12.6746L121.95 8.99961L118.275 5.32461C118.137 5.18711 118.068 5.01211 118.068 4.79961C118.068 4.58711 118.137 4.41211 118.275 4.27461C118.412 4.13711 118.587 4.06836 118.8 4.06836C119.012 4.06836 119.187 4.13711 119.325 4.27461L123 7.94961L126.675 4.27461C126.812 4.13711 126.987 4.06836 127.2 4.06836C127.412 4.06836 127.587 4.13711 127.725 4.27461C127.862 4.41211 127.931 4.58711 127.931 4.79961C127.931 5.01211 127.862 5.18711 127.725 5.32461L124.05 8.99961L127.725 12.6746C127.862 12.8121 127.931 12.9871 127.931 13.1996C127.931 13.4121 127.862 13.5871 127.725 13.7246C127.587 13.8621 127.412 13.9309 127.2 13.9309C126.987 13.9309 126.812 13.8621 126.675 13.7246L123 10.0496Z" fill="#011329"/>
<path d="M79.8293 9.86338C79.9033 9.86328 79.9766 9.87779 80.045 9.90606C80.1133 9.93433 80.1755 9.97581 80.2278 10.0281C80.2801 10.0804 80.3216 10.1426 80.3498 10.2109C80.3781 10.2793 80.3926 10.3526 80.3925 10.4266L80.3917 12.2507L83.409 9.23335C83.5145 9.12786 83.6576 9.06859 83.8068 9.06859C83.956 9.06859 84.099 9.12786 84.2045 9.23335C84.31 9.33883 84.3693 9.48191 84.3693 9.63109C84.3693 9.78028 84.31 9.92335 84.2045 10.0288L81.1872 13.0462L83.0113 13.0454C83.1607 13.0454 83.3039 13.1047 83.4095 13.2103C83.5152 13.3159 83.5745 13.4592 83.5745 13.6086C83.5745 13.7579 83.5152 13.9012 83.4095 14.0068C83.3039 14.1124 83.1607 14.1718 83.0113 14.1718L79.8293 14.1718C79.7553 14.1719 79.682 14.1574 79.6137 14.1291C79.5453 14.1008 79.4832 14.0593 79.4309 14.007C79.3785 13.9547 79.3371 13.8926 79.3088 13.8242C79.2805 13.7558 79.266 13.6826 79.2661 13.6086L79.2661 10.4266C79.266 10.3526 79.2805 10.2793 79.3088 10.2109C79.3371 10.1426 79.3785 10.0804 79.4309 10.0281C79.4832 9.97581 79.5453 9.93433 79.6137 9.90606C79.682 9.87779 79.7553 9.86328 79.8293 9.86338ZM86.4256 3.26713C86.4255 3.19314 86.44 3.11986 86.4682 3.05149C86.4965 2.98312 86.538 2.92099 86.5903 2.86867C86.6426 2.81636 86.7048 2.77487 86.7731 2.7466C86.8415 2.71833 86.9148 2.70383 86.9888 2.70392L90.1707 2.70392C90.2447 2.70383 90.318 2.71833 90.3864 2.7466C90.4548 2.77487 90.5169 2.81636 90.5692 2.86867C90.6215 2.92099 90.663 2.98312 90.6913 3.05149C90.7195 3.11986 90.7341 3.19314 90.734 3.26713V6.44911C90.734 6.59849 90.6746 6.74174 90.569 6.84736C90.4634 6.95298 90.3201 7.01232 90.1707 7.01232C90.0214 7.01232 89.8781 6.95298 89.7725 6.84736C89.6669 6.74174 89.6075 6.59849 89.6075 6.44911L89.6083 4.62504L86.591 7.64235C86.4855 7.74784 86.3425 7.80711 86.1933 7.80711C86.0441 7.80711 85.901 7.74784 85.7955 7.64235C85.69 7.53687 85.6308 7.39379 85.6308 7.24461C85.6308 7.09542 85.69 6.95235 85.7955 6.84686L88.8128 3.82955L86.9888 3.83034C86.9148 3.83044 86.8415 3.81593 86.7731 3.78766C86.7048 3.75939 86.6426 3.71791 86.5903 3.66559C86.538 3.61327 86.4965 3.55115 86.4682 3.48277C86.44 3.4144 86.4255 3.34112 86.4256 3.26713Z" fill="#011329"/>
<path d="M52.25 6.75L47 12L41.75 6.75" stroke="#011329" stroke-width="1.5" stroke-linecap="round" stroke-linejoin="round"/>
<path d="M6 1.5L7.41 2.91M10.59 2.91L12 1.5M6.75 5.3475V4.5975C6.7364 4.29356 6.78453 3.99002 6.89147 3.70519C6.99841 3.42036 7.16195 3.16015 7.37222 2.94026C7.58249 2.72037 7.83514 2.54537 8.1149 2.42581C8.39467 2.30624 8.69576 2.2446 9 2.2446C9.30424 2.2446 9.60533 2.30624 9.8851 2.42581C10.1649 2.54537 10.4175 2.72037 10.6278 2.94026C10.838 3.16015 11.0016 3.42036 11.1085 3.70519C11.2155 3.99002 11.2636 4.29356 11.25 4.5975V5.3475" stroke="#011329" stroke-width="1.5" stroke-linecap="round" stroke-linejoin="round"/>
<path d="M9 15C6.525 15 4.5 12.975 4.5 10.5V8.25C4.5 7.45435 4.81607 6.69129 5.37868 6.12868C5.94129 5.56607 6.70435 5.25 7.5 5.25H10.5C11.2956 5.25 12.0587 5.56607 12.6213 6.12868C13.1839 6.69129 13.5 7.45435 13.5 8.25V10.5C13.5 12.975 11.475 15 9 15ZM9 15V8.25" stroke="#011329" stroke-width="1.5" stroke-linecap="round" stroke-linejoin="round"/>
<path d="M4.8975 6.75C3.45 6.6 2.25 5.325 2.25 3.75M4.5 9.75H1.5M2.25 15.75C2.25 14.175 3.525 12.825 5.1 12.75M15.7275 3.75C15.7275 5.325 14.5275 6.6 13.1025 6.75M16.5 9.75H13.5M12.9 12.75C14.475 12.825 15.75 14.175 15.75 15.75" stroke="#011329" stroke-width="1.5" stroke-linecap="round" stroke-linejoin="round"/>
</svg>
